<svg id="图层_1" data-name="图层 1" xmlns="http://www.w3.org/2000/svg" viewBox="0 0 2000 2000"><title>画板 1 副本</title><path d="M999.9986,644.40426l286.55474,165.4434L1197.828,861.07284l-2.73385-1.57574c2.76728-8.28232-.078-16.35864-5.62085-22.73674l-11.79851-13.5691-13.57189-11.7985c-12.83133-11.15539-31.23623-8.21551-36.43392,9.1732L999.9986,746.85739l-133.887,77.29991a124.7732,124.7732,0,0,0-21.46724-14.8553c1.54789,8.37143,3.12363,16.44216,3.99778,24.94165L802.172,861.07284l-88.72535-51.22518ZM1297.177,828.247v330.88678l-286.552,165.44061V1222.12125l197.82665-114.21544V879.47491l88.72534-51.228ZM989.37774,1324.57443,702.823,1159.13381V828.247l88.72536,51.228v106.863a198.49584,198.49584,0,0,0-27.67552,10.82411,212.17689,212.17689,0,0,1,27.67552,13.274v97.46983l37.9456,21.90989c-1.24721,14.46554-1.89589,29.08422-2.461,44.01467,21.43105-.13084,48.0598-.82964,67.8316-6.27508l94.51323,54.566v102.45313ZM845.1705,1155.6956c1.71492-34.20949,2.294-49.1845,17.98449-70.32881,15.181,16.36423,32.17164,29.37653,51.37272,37.71177a124.40792,124.40792,0,0,0,12.92878,4.78288c-28.40213,25.37316-42.01858,25.8158-82.286,27.8342Zm153.69226-229.035A85.21666,85.21666,0,0,0,984.954,938.07768a66.48707,66.48707,0,0,0-15.13369,22.90655l18.62759-18.02346C992.29258,939.24416,996.527,931.69124,998.86276,926.66059Zm43.263-40.23961a86.04872,86.04872,0,0,0-19.02289,5.181c5.87975,1.73442,11.1554,3.32686,18.97837,5.671q.025-5.42877.04456-10.85195Zm42.35264-19.9472,5.40648,2.28565,4.22053-4.14812a158.27388,158.27388,0,0,0-18.63594-7.3692Zm-20.7128-12.58078a196.94291,196.94291,0,0,0-32.78131-5.18655c6.985-5.4399,22.28294-8.32965,32.95952-10.77678-17.372-7.02955-47.709-7.97052-72.54488-.04732-1.37807,4.19266-4.12864,10.76843-7.475,13.78626-4.41538,3.98109-8.52733,7.5-12.17433,10.89928,28.11818-12.46943,58.24916-13.36032,87.77042-5.16429Zm-195.04265-1.39477c3.377,21.98786-5.56239,57.38333-7.26618,61.8906-1.70657,4.50449-3.956,9.68545-11.36976,28.22118-7.41652,18.53571-6.82352,54.18454-1.83744,65.42346-12.088-8.505-26.98509-13.31853-41.18893-8.1849,23.89209,12.191,37.43892,39.23736,53.30479,59.99748,36.43947,47.68674,81.345,69.96969,138.99283,53.92562,28.48288-7.926,69.889-63.19907,45.47625-84.47142-42.26356,23.8559-87.73148-6.6927-89.51879-53.21293-1.30012-33.88378,35.59594-68.27983,71.409-72.6813-14.61308-4.37641-19.60755-6.64536-38.38548-3.65537,16.89317-12.38591,29.6271-22.17995,58.51086-25.05023,1.77338-3.3185,4.64091-5.5958,7.48054-7.94268-36.14995-9.36251-88.97869-8.14036-134.82523,52.5782,13.65262-30.12263,23.50512-42.26634,57.62275-75.521,9.0006-8.77231,7.20214-21.63429,6.07742-30.52908-9.59915,15.76567-27.15491,24.34589-51.08319,34.91664a116.219,116.219,0,0,0-46.71514,38.05418c-3.03733-12.98725-6.05516-24.67995-16.68436-33.7585Zm172.8154,248.32521q6.47689-2.67262,12.82857-5.696c-12.11032,19.67157-41.3699,41.601-94.24321,48.53864,56.52587,14.88036,110.51832,6.431,144.52739-28.8392-2.72552,4.78564-5.56239,9.872-8.68043,14.40428,41.7151-24.10368,96.011-94.96426,57.11049-163.24685a64.50487,64.50487,0,0,1,16.72612,20.69054c.30624-32.464-9.54626-61.9268-28.30467-85.2593l-10.98838,11.186,20.32024,19.83306-15.16154,18.3297c-7.42489,8.97832-12.294,8.995-21.49231,9.02565l-12.85083.0501a16.36061,16.36061,0,0,1-5.23945,11.21108l-.20047,9.3987c-.19209,8.97835-5.33129,17.80075-14.25951,20.48727l.0028.01394c-10.75728,3.20155-19.54909,9.73555-27.244,17.6866a34.89079,34.89079,0,0,1,10.69326,17.14094c2.951,10.60418,1.1637,22.514-3.68043,34.19A112.20355,112.20355,0,0,1,1041.53834,1100.82344ZM969.7841,978.38689,997.017,952.04213c5.54846-5.3703,13.64428-18.77794,16.60365-28.72508.62918-2.11861,3.33244-3.99222,7.07409-4.07295l18.05409-.387.99387-3.12362c.54566-1.71493,1.27784-1.96549,2.8146-1.97384l11.62588-.05567a1.09008,1.09008,0,0,0,1.05512-1.08575l.103-25.568c.0195-5.0028-.07238-7.56964,3.8781-10.838l8.196-6.77341,20.63484,21.14153,52.74243-51.80982,3.299-12.901c1.289-5.039,4.8469-4.86918,8.75839-1.46994l12.63367,10.98279,10.98281,12.6337c3.39645,3.91148,3.56905,7.4694-1.46994,8.7584l-12.901,3.299L1110.283,912.81592l21.14431,20.63485-6.77622,8.19324c-3.26561,3.95324-5.83519,3.86138-10.83523,3.88086l-25.56806.103a1.08816,1.08816,0,0,0-1.08575,1.05512l-.05569,11.6259c-.00837,1.53676-.25892,2.269-1.97384,2.81461l-3.12361.99666-.387,18.05131c-.08076,3.74167-1.95714,6.44492-4.07295,7.07409-9.94715,2.95938-23.35476,11.05516-28.72506,16.60365l-14.3152,14.79961c-16.3698,8.12364-32.91776,7.09078-47.59488-6.13867a53.154,53.154,0,0,1-16.54518-30.00849q-.38-2.1381-.58463-4.11471Z" fill="#0d1c33"/><polygon points="373.115 1089.792 399.582 1125.005 355.534 1124.593 330.223 1160.646 317.003 1118.627 274.893 1105.696 310.771 1080.137 310.056 1036.093 345.45 1062.317 387.118 1048.026 373.115 1089.792" fill="#0d1c33"/><polygon points="1626.466 1089.792 1599.999 1125.005 1644.048 1124.593 1669.358 1160.646 1682.579 1118.627 1724.689 1105.696 1688.811 1080.137 1689.526 1036.093 1654.132 1062.317 1612.464 1048.026 1626.466 1089.792" fill="#0d1c33"/><path d="M479.51062,1000C479.51062,712.5417,712.54169,479.5107,1000,479.5107S1520.48938,712.5417,1520.48938,1000a518.37092,518.37092,0,0,1-120.50916,333.06055h345.00037q3.458-7.71972,6.761-15.49756a811.65631,811.65631,0,0,0,47.534-153.13013,823.89067,823.89067,0,0,0,0-328.86572,811.32221,811.32221,0,0,0-122.75317-291.7102A818.26284,818.26284,0,0,0,1317.563,248.25825a811.67573,811.67573,0,0,0-153.13-47.53393,823.89819,823.89819,0,0,0-328.866,0A811.32029,811.32029,0,0,0,543.85681,323.47749,818.26343,818.26343,0,0,0,248.25842,682.437,811.65748,811.65748,0,0,0,200.7243,835.56709a823.897,823.897,0,0,0,0,328.86572,811.65725,811.65725,0,0,0,47.53412,153.13013q3.29124,7.78163,6.761,15.49756H600.01984A518.37064,518.37064,0,0,1,479.51062,1000Z" fill="none"/><path d="M509.28418,1664.2978H463.642q25.56582,20.67261,52.606,39.30665a852.59179,852.59179,0,0,0,967.50416,0q27.00109-18.60132,52.606-39.30665h-45.64221a826.04805,826.04805,0,0,1-981.43164,0Z" fill="none"/><path d="M1000,174.14888c456.105,0,825.8512,369.74609,825.8512,825.85107A822.988,822.988,0,0,1,1755.926,1333.0605h30.4375a849.34607,849.34607,0,0,0,47.2611-147.812A861.99222,861.99222,0,0,0,1836.4303,827.892a848.87676,848.87676,0,0,0-128.44153-305.21875,856.38348,856.38348,0,0,0-375.67285-309.37256,849.18956,849.18956,0,0,0-160.20777-49.7312,862.49792,862.49792,0,0,0-344.2163,0A848.88362,848.88362,0,0,0,522.67346,292.01094,856.38814,856.38814,0,0,0,213.301,667.68379,849.199,849.199,0,0,0,163.5697,827.892a861.87581,861.87581,0,0,0,4.13123,363.25391,849.04494,849.04494,0,0,0,45.93512,141.91455h30.438A822.98783,822.98783,0,0,1,174.14886,1000C174.14886,543.895,543.895,174.14888,1000,174.14888Z" fill="none"/><path d="M1470.37671,1198.70259A510.79014,510.79014,0,1,0,613.098,1333.0605H1386.9021A507.80955,507.80955,0,0,0,1470.37671,1198.70259Z" fill="none"/><path d="M543.85681,1676.52241a814.7633,814.7633,0,0,0,912.28638,0q8.86359-5.98827,17.57495-12.22461H526.28186Q534.99658,1670.52559,543.85681,1676.52241Z" fill="none"/><text transform="matrix(0.11415, -0.99346, 0.99346, 0.11415, 416.23152, 954.71616)" font-size="178.32388" fill="#0d1c33" font-family="NotoSerifCJKsc-Black-GBpc-EUC-H, Noto Serif CJK SC"> </text><text transform="matrix(0.39149, -0.92018, 0.92018, 0.39149, 426.56674, 852.84367)" font-size="178.32388" fill="#0d1c33" font-family="NotoSerifCJKsc-Black-GBpc-EUC-H, Noto Serif CJK SC">剑</text><text transform="matrix(0.71663, -0.69745, 0.69745, 0.71663, 527.83915, 643.03583)" font-size="178.32388" fill="#0d1c33" font-family="NotoSerifCJKsc-Black-GBpc-EUC-H, Noto Serif CJK SC">三</text><text transform="translate(702.21819 488.42309) rotate(-21.58234)" font-size="178.32388" fill="#0d1c33" font-family="NotoSerifCJKsc-Black-GBpc-EUC-H, Noto Serif CJK SC">魔</text><text transform="matrix(0.99978, 0.02107, -0.02107, 0.99978, 922.65306, 413.10838)" font-size="178.32388" fill="#0d1c33" font-family="NotoSerifCJKsc-Black-GBpc-EUC-H, Noto Serif CJK SC">盒</text><text transform="matrix(0.92373, 0.38303, -0.38303, 0.92373, 1141.92632, 425.25777)" font-size="178.32388" fill="#0d1c33" font-family="NotoSerifCJKsc-Black-GBpc-EUC-H, Noto Serif CJK SC">专</text><text transform="matrix(0.72009, 0.69388, -0.69388, 0.72009, 1341.56779, 516.5535)" font-size="178.32388" fill="#0d1c33" font-family="NotoSerifCJKsc-Black-GBpc-EUC-H, Noto Serif CJK SC">用</text><text transform="translate(1501.69711 685.90519) rotate(66.56507)" font-size="178.32388" fill="#0d1c33" font-family="NotoSerifCJKsc-Black-GBpc-EUC-H, Noto Serif CJK SC">章</text><path d="M1148.26,1452.96431c-11.00977,11.11523-16.8291,26.93262-16.8291,45.74414,0,42.55078,27.999,61.59766,55.74707,61.59766,27.67431,0,55.59863-19.04688,55.59863-61.59766,0-18.8916-5.77295-34.72852-16.69531-45.79785-9.958-10.0918-23.77393-15.64942-38.90332-15.64942C1172.11108,1437.26118,1158.28979,1442.83833,1148.26,1452.96431Zm63.11719,45.74414c0,15.30371-2.35791,50.89844-24.19922,50.89844-21.84033,0-24.19824-35.59473-24.19824-50.89844,0-15.25879,2.35791-50.74805,24.19824-50.74805C1202.33081,1447.9604,1211.3772,1466.93208,1211.3772,1498.70845Z" fill="none"/><path d="M1013.14288,1546.08833l-13.56006,1.35547v9.86231h50.04731c18.93554,0,33.13965-3.57032,42.21777-10.61133a28.31172,28.31172,0,0,0,11.28027-23.08789c0-15.02246-9.43017-24.80469-28.06982-29.17871,14.25928-4.91016,21.47021-13.42872,21.47021-25.419,0-13.11426-7.22558-28.748-41.64843-28.748H999.58282v9.8877l13.563,1.2041c.38575,14.41211.38575,29.165.38575,43.45508v5.40039C1013.53156,1515.37935,1013.53156,1531.04243,1013.14288,1546.08833Zm30.51654-95.12793h4.6211c13.105,0,18.94922,5.84375,18.94922,18.94922,0,13.9668-6.93067,21.04883-20.59961,21.04883h-3.34961C1043.282,1477.17036,1043.302,1464.03169,1043.65942,1450.9604Zm4.32129,50.39844c16.96143,0,24.19825,6.78809,24.19825,22.69922,0,14.84961-8.05665,22.69922-23.29883,22.69922h-5.21485c-.36572-14.50879-.38379-29.5625-.38476-45.39844Z" fill="none"/><polygon points="801.284 1557.306 859.831 1557.306 859.831 1547.463 846.464 1546.014 816.124 1489.216 839.616 1452.14 855.781 1450.06 855.781 1440.261 814.933 1440.261 814.933 1450.04 826.456 1451.629 810.615 1479.024 795.758 1451.33 807.933 1450.125 807.933 1440.261 749.236 1440.261 749.236 1450.134 762.762 1451.421 790.69 1503.698 764.18 1545.317 750.136 1547.577 750.136 1557.306 790.084 1557.306 790.084 1547.719 778.192 1545.849 796.221 1514.082 813.46 1546.238 801.284 1547.442 801.284 1557.306" fill="none"/><path d="M917.9339,1549.60689a22.72139,22.72139,0,0,1-3.36133-.21l-2.11084-12.92188c-1.39941-10.41992-5.58691-15.06738-13.57715-15.06738a11.71342,11.71342,0,0,0-11.686,8.50488l-.14453.46191.03857.4834c1.50293,18.7002,15.22607,28.999,38.64063,28.999,26.57617,0,43.74853-13.05176,43.74853-33.25,0-14.64551-7.749-24.13086-23.61865-28.79688,13.49414-4.98047,20.31885-13.88086,20.31885-26.55078,0-18.18945-14.05567-29.04883-37.59864-29.04883-22.29541,0-36.41455,10.7627-36.84765,28.08789l-.01758.70508.353.61035a11.93627,11.93627,0,0,0,10.56347,5.74707c7.3169,0,12.31348-4.35547,13.70362-11.9248l2.51074-12.95117a24.90717,24.90717,0,0,1,2.83447-.17481c10.38428,0,15.64941,6.57813,15.64941,19.55078,0,14.36524-6.57714,21.64844-19.54931,21.64844H910.1839v10.84961h8.34961c13.96728,0,21.04931,7.58691,21.04931,22.54883C939.58282,1541.97017,932.29913,1549.60689,917.9339,1549.60689Z" fill="none"/><polygon points="1316.68 1557.306 1375.228 1557.306 1375.228 1547.463 1361.861 1546.014 1331.522 1489.216 1355.012 1452.14 1371.178 1450.06 1371.178 1440.261 1330.329 1440.261 1330.329 1450.04 1341.853 1451.629 1326.012 1479.024 1311.155 1451.33 1323.33 1450.125 1323.33 1440.261 1264.632 1440.261 1264.632 1450.134 1278.159 1451.421 1306.087 1503.698 1279.576 1545.317 1265.532 1547.577 1265.532 1557.306 1305.481 1557.306 1305.481 1547.719 1293.589 1545.849 1311.618 1514.082 1328.857 1546.238 1316.68 1547.442 1316.68 1557.306" fill="none"/><path d="M1470.37671,1198.70259A510.79014,510.79014,0,1,0,613.098,1333.0605H1386.9021A507.80955,507.80955,0,0,0,1470.37671,1198.70259Z" fill="none"/><path d="M1000,1825.851A822.14226,822.14226,0,0,1,509.28418,1664.2978H463.642q25.56582,20.67261,52.606,39.30665a852.59179,852.59179,0,0,0,967.50416,0q27.00109-18.60132,52.606-39.30665h-45.64221A822.14212,822.14212,0,0,1,1000,1825.851Z" fill="none"/><path d="M676.47443,1569.79146c-4.42823-5.81348-8.75684-9.68457-15.48828-9.68457-8.34864,0-14.7754,5.88672-14.94874,13.69238l-.01513.69043.34082.59961c4.15283,7.31152,11.09521,10.86523,21.22314,10.86523,17.17237,0,31.2002-10.14941,37.54834-27.16015,4.87061-9.9668,6.94971-23.7793,6.94971-46.13672v-18.44922c0-14.19824,0-28.85645.38477-42.85449l13.56494-1.20508v-9.8877H666.286v9.88477l15.02393,1.35156c.29638,27.38672.59277,47.53809.81054,62.35742.21973,14.93555.36475,24.80274.36475,31.95118,0,12.65625-1.25049,21.69531-3.72266,26.96Z" fill="none"/><path d="M1836.4303,827.892a848.87676,848.87676,0,0,0-128.44153-305.21875,856.38348,856.38348,0,0,0-375.67285-309.37256,849.18956,849.18956,0,0,0-160.20777-49.7312,862.49792,862.49792,0,0,0-344.2163,0A848.88362,848.88362,0,0,0,522.67346,292.01094,856.38814,856.38814,0,0,0,213.301,667.68379,849.199,849.199,0,0,0,163.5697,827.892a861.87581,861.87581,0,0,0,4.13123,363.25391,849.04494,849.04494,0,0,0,45.93512,141.91455h30.438A822.98783,822.98783,0,0,1,174.14886,1000c0-456.105,369.74616-825.85107,825.85114-825.85107S1825.8512,543.895,1825.8512,1000A822.988,822.988,0,0,1,1755.926,1333.0605h30.4375a849.34607,849.34607,0,0,0,47.2611-147.812A861.99222,861.99222,0,0,0,1836.4303,827.892Z" fill="none"/><path d="M1815.8512,1000a821.92309,821.92309,0,0,0-16.57557-164.43286,811.32221,811.32221,0,0,0-122.75317-291.7102A818.26284,818.26284,0,0,0,1317.563,248.25825a811.67573,811.67573,0,0,0-153.13-47.53393,823.89819,823.89819,0,0,0-328.866,0A811.32029,811.32029,0,0,0,543.85681,323.47749,818.26343,818.26343,0,0,0,248.25842,682.437,811.65748,811.65748,0,0,0,200.7243,835.56709a823.897,823.897,0,0,0,0,328.86572,811.65725,811.65725,0,0,0,47.53412,153.13013q3.29124,7.78163,6.761,15.49756H600.01984A518.37064,518.37064,0,0,1,479.51062,1000C479.51062,712.5417,712.54169,479.5107,1000,479.5107S1520.48938,712.5417,1520.48938,1000a518.37092,518.37092,0,0,1-120.50916,333.06055h345.00037q3.458-7.71972,6.761-15.49756a811.65631,811.65631,0,0,0,47.534-153.13013A821.923,821.923,0,0,0,1815.8512,1000Z" fill="none"/><path d="M543.85681,1676.52241a814.7633,814.7633,0,0,0,912.28638,0q8.86359-5.98827,17.57495-12.22461H526.28186Q534.99658,1670.52559,543.85681,1676.52241Z" fill="none"/><path d="M1162.97974,1498.70845c0,15.30371,2.35791,50.89844,24.19824,50.89844,21.84131,0,24.19922-35.59473,24.19922-50.89844,0-31.77637-9.04639-50.74805-24.19922-50.74805C1165.33765,1447.9604,1162.97974,1483.44966,1162.97974,1498.70845Z" fill="#0d1c33"/><path d="M1000,106.22334c-493.619,0-893.77655,400.15747-893.77655,893.77686a890.258,890.258,0,0,0,86.60626,384.26416h.00006a895.81571,895.81571,0,0,0,167.57,240.03344h.00006c162.306,166.259,388.89862,269.47876,639.60016,269.47876,250.70117,0,477.29419-103.21972,639.6001-269.47876h.00012a895.57,895.57,0,0,0,172.81592-251.2373h.00012a890.44068,890.44068,0,0,0,81.36035-373.0603C1893.77661,506.38081,1493.619,106.22334,1000,106.22334Zm483.75208,1597.38111a852.59159,852.59159,0,0,1-967.50416,0q-27.001-18.60132-52.606-39.30665h45.64221a826.04805,826.04805,0,0,0,981.43164,0H1536.358Q1510.7923,1684.97041,1483.75208,1703.60445Zm-172.13367-189.522-18.02979,31.7666,11.89209,1.87012v9.58692h-39.94824v-9.7295l14.04346-2.25976,26.51123-41.61914-27.92822-52.27637-13.52686-1.28711v-9.873h58.69824v9.86426l-12.17529,1.2041,14.85693,27.69434,15.84131-27.39453-11.52392-1.58985v-9.77832H1371.178V1450.06l-16.166,2.08008-23.49023,37.07617,30.33935,56.79785,13.3667,1.44922v9.84278h-58.54785v-9.86426l12.17676-1.2041ZM613.098,1333.0605a510.78993,510.78993,0,1,1,773.80414,0Zm629.67865,165.648c0,42.55078-27.92432,61.59766-55.59863,61.59766-27.748,0-55.74707-19.04688-55.74707-61.59766,0-18.81152,5.81933-34.62891,16.8291-45.74414,10.02978-10.126,23.85107-15.70313,38.918-15.70313,15.12939,0,28.94531,5.55762,38.90332,15.64942C1237.00366,1463.97993,1242.77661,1479.81685,1242.77661,1498.70845Zm-229.6308-47.35547-13.563-1.2041v-9.8877h55.29731c34.42285,0,41.64843,15.63379,41.64843,28.748,0,11.99023-7.21093,20.50879-21.47021,25.419,18.63965,4.374,28.06982,14.15625,28.06982,29.17871a28.31172,28.31172,0,0,1-11.28027,23.08789c-9.07812,7.041-23.28223,10.61133-42.21777,10.61133H999.58282v-9.86231l13.56006-1.35547c.38868-15.0459.38868-30.709.38868-45.87988v-5.40039C1013.53156,1480.518,1013.53156,1465.76509,1013.14581,1451.353Zm-94.6123,53.00586H910.1839v-10.84961h7.59961c12.97217,0,19.54931-7.2832,19.54931-21.64844,0-12.97265-5.26513-19.55078-15.64941-19.55078a24.90717,24.90717,0,0,0-2.83447.17481L916.3382,1465.436c-1.39014,7.56933-6.38672,11.9248-13.70362,11.9248a11.93627,11.93627,0,0,1-10.56347-5.74707l-.353-.61035.01758-.70508c.4331-17.32519,14.55224-28.08789,36.84765-28.08789,23.543,0,37.59864,10.85938,37.59864,29.04883,0,12.66992-6.82471,21.57031-20.31885,26.55078,15.86963,4.666,23.61865,14.15137,23.61865,28.79688,0,20.19824-17.17236,33.25-43.74853,33.25-23.41456,0-37.1377-10.29883-38.64063-28.999l-.03857-.4834.14453-.46191a11.71342,11.71342,0,0,1,11.686-8.50488c7.99024,0,12.17774,4.64746,13.57715,15.06738l2.11084,12.92188a22.72139,22.72139,0,0,0,3.36133.21c14.36523,0,21.64892-7.63672,21.64892-22.69922C939.58282,1511.94575,932.50079,1504.35884,918.53351,1504.35884Zm-122.3125,9.72363-18.02881,31.7666,11.8916,1.87012v9.58692H750.13556v-9.7295l14.04394-2.25976,26.51075-41.61914L762.762,1451.42134l-13.52636-1.28711v-9.873h58.69775v9.86426l-12.17529,1.2041,14.85693,27.69434,15.84131-27.39453-11.52344-1.58985v-9.77832h40.84815V1450.06l-16.16553,2.08008-23.49121,37.07617,30.33984,56.79785,13.36719,1.44922v9.84278H801.28351v-9.86426l12.17676-1.2041Zm-114.10059-.22754c-.21777-14.81933-.51416-34.9707-.81054-62.35742L666.286,1450.146v-9.88477H726.034v9.8877l-13.56494,1.20508c-.38477,13.998-.38477,28.65625-.38477,42.85449v18.44922c0,22.35742-2.0791,36.16992-6.94971,46.13672-6.34814,17.01074-20.376,27.16015-37.54834,27.16015-10.12793,0-17.07031-3.55371-21.22314-10.86523l-.34082-.59961.01513-.69043c.17334-7.80566,6.6001-13.69238,14.94874-13.69238,6.73144,0,11.06005,3.87109,15.48828,9.68457l2.28808,2.97461c2.47217-5.26465,3.72266-14.30371,3.72266-26.96C682.48517,1538.65767,682.34015,1528.79048,682.12042,1513.85493Zm791.59772,150.44287q-8.71472,6.22779-17.57495,12.22461a814.76351,814.76351,0,0,1-912.28638,0q-8.86368-5.98827-17.57495-12.22461Zm271.26245-331.2373H1399.98022A518.37092,518.37092,0,0,0,1520.48938,1000c0-287.45825-233.03113-520.48925-520.48938-520.48925S479.51062,712.5417,479.51062,1000A518.37064,518.37064,0,0,0,600.01984,1333.0605H255.01941q-3.45786-7.71972-6.761-15.49756a811.65725,811.65725,0,0,1-47.53412-153.13013,823.897,823.897,0,0,1,0-328.86572,811.324,811.324,0,0,1,122.75324-291.7102A818.26242,818.26242,0,0,1,682.43707,248.25825a811.67515,811.67515,0,0,1,153.13-47.53393,823.89819,823.89819,0,0,1,328.866,0,811.3191,811.3191,0,0,1,291.71021,122.75317A818.26343,818.26343,0,0,1,1751.74158,682.437a811.65654,811.65654,0,0,1,47.534,153.13013,823.89067,823.89067,0,0,1,0,328.86572,811.65631,811.65631,0,0,1-47.534,153.13013Q1748.45025,1325.34457,1744.98059,1333.0605Zm41.38294,0H1755.926A822.988,822.988,0,0,0,1825.8512,1000c0-456.105-369.74622-825.85107-825.8512-825.85107S174.14886,543.895,174.14886,1000A822.98783,822.98783,0,0,0,244.074,1333.0605h-30.438A849.04494,849.04494,0,0,1,167.70093,1191.146,861.87581,861.87581,0,0,1,163.5697,827.892,848.87828,848.87828,0,0,1,292.01129,522.67329,856.383,856.383,0,0,1,667.68408,213.30073a849.18821,849.18821,0,0,1,160.20777-49.7312,862.49792,862.49792,0,0,1,344.2163,0,848.88362,848.88362,0,0,1,305.21839,128.44141A856.38783,856.38783,0,0,1,1786.6991,667.68379,849.19442,849.19442,0,0,1,1836.4303,827.892a861.99222,861.99222,0,0,1-2.80567,357.35645A849.34607,849.34607,0,0,1,1786.36353,1333.0605Z" fill="#0d1c33"/><path d="M1048.88013,1546.75728c15.24218,0,23.29883-7.84961,23.29883-22.69922,0-15.91113-7.23682-22.69922-24.19825-22.69922h-4.70019c.001,15.83594.019,30.88965.38476,45.39844Z" fill="#0d1c33"/><path d="M1067.22974,1469.90962c0-13.10547-5.84424-18.94922-18.94922-18.94922h-4.6211c-.35742,13.07129-.37744,26.21-.3789,39.99805h3.34961C1060.29907,1490.95845,1067.22974,1483.87642,1067.22974,1469.90962Z" fill="#0d1c33"/></svg>