<svg id="图层_1" data-name="图层 1" xmlns="http://www.w3.org/2000/svg" viewBox="0 0 2000 2000"><title>画板 1 副本</title><path d="M1000,489.51062a508.85926,508.85926,0,1,1-198.70245,40.11261A507.2855,507.2855,0,0,1,1000,489.51062m0-10c-287.45831,0-520.48938,233.03107-520.48938,520.48938S712.54169,1520.48938,1000,1520.48938,1520.48938,1287.45825,1520.48938,1000,1287.45825,479.51062,1000,479.51062Z" fill="#0d1c33"/><path d="M999.9986,644.40426l286.55474,165.4434L1197.828,861.07284l-2.73385-1.57574c2.76728-8.28232-.078-16.35864-5.62085-22.73674l-11.79851-13.5691-13.57189-11.7985c-12.83133-11.15539-31.23623-8.21551-36.43392,9.1732L999.9986,746.85739l-133.887,77.29991a124.7732,124.7732,0,0,0-21.46724-14.8553c1.54789,8.37143,3.12363,16.44216,3.99778,24.94165L802.172,861.07284l-88.72535-51.22518ZM1297.177,828.247v330.88678l-286.552,165.44061V1222.12125l197.82665-114.21544V879.47491l88.72534-51.228ZM989.37774,1324.57443,702.823,1159.13381V828.247l88.72536,51.228v106.863a198.49584,198.49584,0,0,0-27.67552,10.82411,212.17689,212.17689,0,0,1,27.67552,13.274v97.46983l37.9456,21.90989c-1.24721,14.46554-1.89589,29.08422-2.461,44.01467,21.43105-.13084,48.0598-.82964,67.8316-6.27508l94.51323,54.566v102.45313ZM845.1705,1155.6956c1.71492-34.20949,2.294-49.1845,17.98449-70.32881,15.181,16.36423,32.17164,29.37653,51.37272,37.71177a124.40792,124.40792,0,0,0,12.92878,4.78288c-28.40213,25.37316-42.01858,25.8158-82.286,27.8342Zm153.69226-229.035A85.21666,85.21666,0,0,0,984.954,938.07768a66.48707,66.48707,0,0,0-15.13369,22.90655l18.62759-18.02346C992.29258,939.24416,996.527,931.69124,998.86276,926.66059Zm43.263-40.23961a86.04872,86.04872,0,0,0-19.02289,5.181c5.87975,1.73442,11.1554,3.32686,18.97837,5.671q.025-5.42877.04456-10.85195Zm42.35264-19.9472,5.40648,2.28565,4.22053-4.14812a158.27388,158.27388,0,0,0-18.63594-7.3692Zm-20.7128-12.58078a196.94291,196.94291,0,0,0-32.78131-5.18655c6.985-5.4399,22.28294-8.32965,32.95952-10.77678-17.372-7.02955-47.709-7.97052-72.54488-.04732-1.37807,4.19266-4.12864,10.76843-7.475,13.78626-4.41538,3.98109-8.52733,7.5-12.17433,10.89928,28.11818-12.46943,58.24916-13.36032,87.77042-5.16429Zm-195.04265-1.39477c3.377,21.98786-5.56239,57.38333-7.26618,61.8906-1.70657,4.50449-3.956,9.68545-11.36976,28.22118-7.41652,18.53571-6.82352,54.18454-1.83744,65.42346-12.088-8.505-26.98509-13.31853-41.18893-8.1849,23.89209,12.191,37.43892,39.23736,53.30479,59.99748,36.43947,47.68674,81.345,69.96969,138.99283,53.92562,28.48288-7.926,69.889-63.19907,45.47625-84.47142-42.26356,23.8559-87.73148-6.6927-89.51879-53.21293-1.30012-33.88378,35.59594-68.27983,71.409-72.6813-14.61308-4.37641-19.60755-6.64536-38.38548-3.65537,16.89317-12.38591,29.6271-22.17995,58.51086-25.05023,1.77338-3.3185,4.64091-5.5958,7.48054-7.94268-36.14995-9.36251-88.97869-8.14036-134.82523,52.5782,13.65262-30.12263,23.50512-42.26634,57.62275-75.521,9.0006-8.77231,7.20214-21.63429,6.07742-30.52908-9.59915,15.76567-27.15491,24.34589-51.08319,34.91664a116.219,116.219,0,0,0-46.71514,38.05418c-3.03733-12.98725-6.05516-24.67995-16.68436-33.7585Zm172.8154,248.32521q6.47689-2.67262,12.82857-5.696c-12.11032,19.67157-41.3699,41.601-94.24321,48.53864,56.52587,14.88036,110.51832,6.431,144.52739-28.8392-2.72552,4.78564-5.56239,9.872-8.68043,14.40428,41.7151-24.10368,96.011-94.96426,57.11049-163.24685a64.50487,64.50487,0,0,1,16.72612,20.69054c.30624-32.464-9.54626-61.9268-28.30467-85.2593l-10.98838,11.186,20.32024,19.83306-15.16154,18.3297c-7.42489,8.97832-12.294,8.995-21.49231,9.02565l-12.85083.0501a16.36061,16.36061,0,0,1-5.23945,11.21108l-.20047,9.3987c-.19209,8.97835-5.33129,17.80075-14.25951,20.48727l.0028.01394c-10.75728,3.20155-19.54909,9.73555-27.244,17.6866a34.89079,34.89079,0,0,1,10.69326,17.14094c2.951,10.60418,1.1637,22.514-3.68043,34.19A112.20355,112.20355,0,0,1,1041.53834,1100.82344ZM969.7841,978.38689,997.017,952.04213c5.54846-5.3703,13.64428-18.77794,16.60365-28.72508.62918-2.11861,3.33244-3.99222,7.07409-4.07295l18.05409-.387.99387-3.12362c.54566-1.71493,1.27784-1.96549,2.8146-1.97384l11.62588-.05567a1.09008,1.09008,0,0,0,1.05512-1.08575l.103-25.568c.0195-5.0028-.07238-7.56964,3.8781-10.838l8.196-6.77341,20.63484,21.14153,52.74243-51.80982,3.299-12.901c1.289-5.039,4.8469-4.86918,8.75839-1.46994l12.63367,10.98279,10.98281,12.6337c3.39645,3.91148,3.56905,7.4694-1.46994,8.7584l-12.901,3.299L1110.283,912.81592l21.14431,20.63485-6.77622,8.19324c-3.26561,3.95324-5.83519,3.86138-10.83523,3.88086l-25.56806.103a1.08816,1.08816,0,0,0-1.08575,1.05512l-.05569,11.6259c-.00837,1.53676-.25892,2.269-1.97384,2.81461l-3.12361.99666-.387,18.05131c-.08076,3.74167-1.95714,6.44492-4.07295,7.07409-9.94715,2.95938-23.35476,11.05516-28.72506,16.60365l-14.3152,14.79961c-16.3698,8.12364-32.91776,7.09078-47.59488-6.13867a53.154,53.154,0,0,1-16.54518-30.00849q-.38-2.1381-.58463-4.11471Z" fill="#0d1c33"/><text transform="translate(415.31133 968.76225) rotate(-84.82285)" font-size="178.32388" fill="#0d1c33" font-family="NotoSerifCJKsc-Black-GBpc-EUC-H, Noto Serif CJK SC"> </text><text transform="translate(423.19447 866.67102) rotate(-68.33023)" font-size="178.32388" fill="#0d1c33" font-family="NotoSerifCJKsc-Black-GBpc-EUC-H, Noto Serif CJK SC">剑</text><text transform="matrix(0.69965, -0.71448, 0.71448, 0.69965, 519.39392, 654.4885)" font-size="178.32388" fill="#0d1c33" font-family="NotoSerifCJKsc-Black-GBpc-EUC-H, Noto Serif CJK SC">三</text><text transform="translate(690.00493 495.72838) rotate(-22.96002)" font-size="178.32388" fill="#0d1c33" font-family="NotoSerifCJKsc-Black-GBpc-EUC-H, Noto Serif CJK SC">魔</text><text transform="translate(908.56398 415.13578) rotate(-0.17001)" font-size="178.32388" fill="#0d1c33" font-family="NotoSerifCJKsc-Black-GBpc-EUC-H, Noto Serif CJK SC">盒</text><text transform="translate(1141.4096 425.11046) rotate(22.48014)" font-size="178.32388" fill="#0d1c33" font-family="NotoSerifCJKsc-Black-GBpc-EUC-H, Noto Serif CJK SC">专</text><text transform="matrix(0.70463, 0.70957, -0.70957, 0.70463, 1352.22771, 524.30574)" font-size="178.32388" fill="#0d1c33" font-family="NotoSerifCJKsc-Black-GBpc-EUC-H, Noto Serif CJK SC">用</text><text transform="matrix(0.37703, 0.9262, -0.9262, 0.37703, 1508.59325, 697.12667)" font-size="178.32388" fill="#0d1c33" font-family="NotoSerifCJKsc-Black-GBpc-EUC-H, Noto Serif CJK SC">章</text><path d="M1000,184.14886a821.92559,821.92559,0,0,1,164.433,16.57546,811.32619,811.32619,0,0,1,291.71021,122.75319,818.26134,818.26134,0,0,1,295.59839,358.95956,811.65729,811.65729,0,0,1,47.534,153.13,823.89186,823.89186,0,0,1,0,328.866,811.32474,811.32474,0,0,1-122.75317,291.71021A818.26153,818.26153,0,0,1,1317.563,1751.74158a811.65787,811.65787,0,0,1-153.13,47.534,823.89186,823.89186,0,0,1-328.866,0,811.32593,811.32593,0,0,1-291.71021-122.75317A818.261,818.261,0,0,1,248.25841,1317.563a811.65945,811.65945,0,0,1-47.53409-153.13,823.89722,823.89722,0,0,1,0-328.866A811.32738,811.32738,0,0,1,323.47751,543.85681a818.26086,818.26086,0,0,1,358.95956-295.5984,811.65887,811.65887,0,0,1,153.13-47.53409A821.926,821.926,0,0,1,1000,184.14886m0-10C543.895,174.14886,174.14886,543.895,174.14886,1000S543.895,1825.8512,1000,1825.8512,1825.8512,1456.105,1825.8512,1000,1456.105,174.14886,1000,174.14886Z" fill="#0d1c33"/><path d="M1000,146.22327a860.30714,860.30714,0,0,1,172.10815,17.34625,848.88271,848.88271,0,0,1,305.21839,128.44156A856.38585,856.38585,0,0,1,1786.6991,667.6839,849.19191,849.19191,0,0,1,1836.4303,827.892a861.99251,861.99251,0,0,1-2.80567,357.35651,849.34119,849.34119,0,0,1-47.2611,147.81188H213.63606a849.03735,849.03735,0,0,1-45.93512-141.9143A861.87581,861.87581,0,0,1,163.56969,827.892,848.88016,848.88016,0,0,1,292.01126,522.67328,856.38567,856.38567,0,0,1,667.68408,213.30077a849.19419,849.19419,0,0,1,160.20777-49.73125A860.30721,860.30721,0,0,1,1000,146.22327m0-40c-493.619,0-893.77657,400.1575-893.77657,893.77685a890.2598,890.2598,0,0,0,86.60625,384.26441v-11.20411H1812.41626a890.43938,890.43938,0,0,0,81.36035-373.0603c0-493.61935-400.15759-893.77685-893.77661-893.77685Z" fill="#0d1c33"/><path d="M1536.358,1664.29773q-25.56573,20.67243-52.606,39.30664a852.59306,852.59306,0,0,1-967.50416.00024q-27.001-18.60131-52.606-39.30688H1536.358m103.24219-40H360.39975C522.70581,1790.557,749.2984,1893.77673,1000,1893.77673c250.70129,0,477.29419-103.21972,639.60022-269.479Z" fill="#0d1c33"/><path d="M192.82977,1373.06042v11.204a895.81577,895.81577,0,0,0,167.57,240.03345H1639.60022a895.57058,895.57058,0,0,0,172.81592-251.23743Z" fill="#0d1c33"/><text transform="translate(659.45368 1536.06905)" font-size="120" fill="#fff" font-family="NotoSerifCJKsc-Black-GBpc-EUC-H, Noto Serif CJK SC" letter-spacing="0.35601em">J<tspan x="95.75928" y="0" letter-spacing="0.37em">X3B</tspan><tspan x="477.83643" y="0" letter-spacing="0.33701em">O</tspan><tspan x="613.67725" y="0" xml:space="preserve" letter-spacing="0.37em">X     </tspan></text><polygon points="373.115 1089.792 399.582 1125.005 355.534 1124.593 330.223 1160.646 317.003 1118.627 274.893 1105.696 310.771 1080.137 310.056 1036.093 345.45 1062.317 387.118 1048.026 373.115 1089.792" fill="#0d1c33"/><polygon points="1626.466 1089.792 1599.999 1125.005 1644.048 1124.593 1669.358 1160.646 1682.579 1118.627 1724.689 1105.696 1688.811 1080.137 1689.526 1036.093 1654.132 1062.317 1612.464 1048.026 1626.466 1089.792" fill="#0d1c33"/><line x1="414.86942" y1="1618.29787" x2="1585.13058" y2="1618.29787" fill="none" stroke="#fff" stroke-miterlimit="10" stroke-width="10"/><line x1="227.55319" y1="1373.06042" x2="1585.13058" y2="1373.06042" fill="none" stroke="#fff" stroke-miterlimit="10" stroke-width="10"/><line x1="605.54735" y1="1373.06042" x2="1775.80851" y2="1373.06042" fill="none" stroke="#fff" stroke-miterlimit="10" stroke-width="10"/></svg>