<svg id="图层_1" data-name="图层 1" xmlns="http://www.w3.org/2000/svg" viewBox="0 0 2000 2000"><title>画板 1 副本</title><path d="M999.9986,644.40426l286.55474,165.4434L1197.828,861.07284l-2.73385-1.57574c2.76728-8.28232-.078-16.35864-5.62085-22.73674l-11.79851-13.5691-13.57189-11.7985c-12.83133-11.15539-31.23623-8.21551-36.43392,9.1732L999.9986,746.85739l-133.887,77.29991a124.7732,124.7732,0,0,0-21.46724-14.8553c1.54789,8.37143,3.12363,16.44216,3.99778,24.94165L802.172,861.07284l-88.72535-51.22518ZM1297.177,828.247v330.88678l-286.552,165.44061V1222.12125l197.82665-114.21544V879.47491l88.72534-51.228ZM989.37774,1324.57443,702.823,1159.13381V828.247l88.72536,51.228v106.863a198.49584,198.49584,0,0,0-27.67552,10.82411,212.17689,212.17689,0,0,1,27.67552,13.274v97.46983l37.9456,21.90989c-1.24721,14.46554-1.89589,29.08422-2.461,44.01467,21.43105-.13084,48.0598-.82964,67.8316-6.27508l94.51323,54.566v102.45313ZM845.1705,1155.6956c1.71492-34.20949,2.294-49.1845,17.98449-70.32881,15.181,16.36423,32.17164,29.37653,51.37272,37.71177a124.40792,124.40792,0,0,0,12.92878,4.78288c-28.40213,25.37316-42.01858,25.8158-82.286,27.8342Zm153.69226-229.035A85.21666,85.21666,0,0,0,984.954,938.07768a66.48707,66.48707,0,0,0-15.13369,22.90655l18.62759-18.02346C992.29258,939.24416,996.527,931.69124,998.86276,926.66059Zm43.263-40.23961a86.04872,86.04872,0,0,0-19.02289,5.181c5.87975,1.73442,11.1554,3.32686,18.97837,5.671q.025-5.42877.04456-10.85195Zm42.35264-19.9472,5.40648,2.28565,4.22053-4.14812a158.27388,158.27388,0,0,0-18.63594-7.3692Zm-20.7128-12.58078a196.94291,196.94291,0,0,0-32.78131-5.18655c6.985-5.4399,22.28294-8.32965,32.95952-10.77678-17.372-7.02955-47.709-7.97052-72.54488-.04732-1.37807,4.19266-4.12864,10.76843-7.475,13.78626-4.41538,3.98109-8.52733,7.5-12.17433,10.89928,28.11818-12.46943,58.24916-13.36032,87.77042-5.16429Zm-195.04265-1.39477c3.377,21.98786-5.56239,57.38333-7.26618,61.8906-1.70657,4.50449-3.956,9.68545-11.36976,28.22118-7.41652,18.53571-6.82352,54.18454-1.83744,65.42346-12.088-8.505-26.98509-13.31853-41.18893-8.1849,23.89209,12.191,37.43892,39.23736,53.30479,59.99748,36.43947,47.68674,81.345,69.96969,138.99283,53.92562,28.48288-7.926,69.889-63.19907,45.47625-84.47142-42.26356,23.8559-87.73148-6.6927-89.51879-53.21293-1.30012-33.88378,35.59594-68.27983,71.409-72.6813-14.61308-4.37641-19.60755-6.64536-38.38548-3.65537,16.89317-12.38591,29.6271-22.17995,58.51086-25.05023,1.77338-3.3185,4.64091-5.5958,7.48054-7.94268-36.14995-9.36251-88.97869-8.14036-134.82523,52.5782,13.65262-30.12263,23.50512-42.26634,57.62275-75.521,9.0006-8.77231,7.20214-21.63429,6.07742-30.52908-9.59915,15.76567-27.15491,24.34589-51.08319,34.91664a116.219,116.219,0,0,0-46.71514,38.05418c-3.03733-12.98725-6.05516-24.67995-16.68436-33.7585Zm172.8154,248.32521q6.47689-2.67262,12.82857-5.696c-12.11032,19.67157-41.3699,41.601-94.24321,48.53864,56.52587,14.88036,110.51832,6.431,144.52739-28.8392-2.72552,4.78564-5.56239,9.872-8.68043,14.40428,41.7151-24.10368,96.011-94.96426,57.11049-163.24685a64.50487,64.50487,0,0,1,16.72612,20.69054c.30624-32.464-9.54626-61.9268-28.30467-85.2593l-10.98838,11.186,20.32024,19.83306-15.16154,18.3297c-7.42489,8.97832-12.294,8.995-21.49231,9.02565l-12.85083.0501a16.36061,16.36061,0,0,1-5.23945,11.21108l-.20047,9.3987c-.19209,8.97835-5.33129,17.80075-14.25951,20.48727l.0028.01394c-10.75728,3.20155-19.54909,9.73555-27.244,17.6866a34.89079,34.89079,0,0,1,10.69326,17.14094c2.951,10.60418,1.1637,22.514-3.68043,34.19A112.20355,112.20355,0,0,1,1041.53834,1100.82344ZM969.7841,978.38689,997.017,952.04213c5.54846-5.3703,13.64428-18.77794,16.60365-28.72508.62918-2.11861,3.33244-3.99222,7.07409-4.07295l18.05409-.387.99387-3.12362c.54566-1.71493,1.27784-1.96549,2.8146-1.97384l11.62588-.05567a1.09008,1.09008,0,0,0,1.05512-1.08575l.103-25.568c.0195-5.0028-.07238-7.56964,3.8781-10.838l8.196-6.77341,20.63484,21.14153,52.74243-51.80982,3.299-12.901c1.289-5.039,4.8469-4.86918,8.75839-1.46994l12.63367,10.98279,10.98281,12.6337c3.39645,3.91148,3.56905,7.4694-1.46994,8.7584l-12.901,3.299L1110.283,912.81592l21.14431,20.63485-6.77622,8.19324c-3.26561,3.95324-5.83519,3.86138-10.83523,3.88086l-25.56806.103a1.08816,1.08816,0,0,0-1.08575,1.05512l-.05569,11.6259c-.00837,1.53676-.25892,2.269-1.97384,2.81461l-3.12361.99666-.387,18.05131c-.08076,3.74167-1.95714,6.44492-4.07295,7.07409-9.94715,2.95938-23.35476,11.05516-28.72506,16.60365l-14.3152,14.79961c-16.3698,8.12364-32.91776,7.09078-47.59488-6.13867a53.154,53.154,0,0,1-16.54518-30.00849q-.38-2.1381-.58463-4.11471Z" fill="#0d1c33"/><polygon points="373.115 1089.792 399.582 1125.005 355.534 1124.593 330.223 1160.646 317.003 1118.627 274.893 1105.696 310.771 1080.137 310.056 1036.093 345.45 1062.317 387.118 1048.026 373.115 1089.792" fill="#0d1c33"/><polygon points="1626.466 1089.792 1599.999 1125.005 1644.048 1124.593 1669.358 1160.646 1682.579 1118.627 1724.689 1105.696 1688.811 1080.137 1689.526 1036.093 1654.132 1062.317 1612.464 1048.026 1626.466 1089.792" fill="#0d1c33"/><path d="M479.51062,1000C479.51062,712.5417,712.54169,479.5107,1000,479.5107S1520.48938,712.5417,1520.48938,1000a518.37092,518.37092,0,0,1-120.50916,333.06055h345.00037q3.458-7.71972,6.761-15.49756a811.65631,811.65631,0,0,0,47.534-153.13013,823.89067,823.89067,0,0,0,0-328.86572,811.32221,811.32221,0,0,0-122.75317-291.7102A818.26284,818.26284,0,0,0,1317.563,248.25825a811.67573,811.67573,0,0,0-153.13-47.53393,823.89819,823.89819,0,0,0-328.866,0A811.32029,811.32029,0,0,0,543.85681,323.47749,818.26343,818.26343,0,0,0,248.25842,682.437,811.65748,811.65748,0,0,0,200.7243,835.56709a823.897,823.897,0,0,0,0,328.86572,811.65725,811.65725,0,0,0,47.53412,153.13013q3.29124,7.78163,6.761,15.49756H600.01984A518.37064,518.37064,0,0,1,479.51062,1000Z" fill="none"/><path d="M509.28418,1664.2978H463.642q25.56582,20.67261,52.606,39.30665a852.59179,852.59179,0,0,0,967.50416,0q27.00109-18.60132,52.606-39.30665h-45.64221a826.04805,826.04805,0,0,1-981.43164,0Z" fill="none"/><path d="M1000,174.14888c456.105,0,825.8512,369.74609,825.8512,825.85107A822.988,822.988,0,0,1,1755.926,1333.0605h30.4375a849.34607,849.34607,0,0,0,47.2611-147.812A861.99222,861.99222,0,0,0,1836.4303,827.892a848.87676,848.87676,0,0,0-128.44153-305.21875,856.38348,856.38348,0,0,0-375.67285-309.37256,849.18956,849.18956,0,0,0-160.20777-49.7312,862.49792,862.49792,0,0,0-344.2163,0A848.88362,848.88362,0,0,0,522.67346,292.01094,856.38814,856.38814,0,0,0,213.301,667.68379,849.199,849.199,0,0,0,163.5697,827.892a861.87581,861.87581,0,0,0,4.13123,363.25391,849.04494,849.04494,0,0,0,45.93512,141.91455h30.438A822.98783,822.98783,0,0,1,174.14886,1000C174.14886,543.895,543.895,174.14888,1000,174.14888Z" fill="none"/><path d="M1470.37671,1198.70259A510.79014,510.79014,0,1,0,613.098,1333.0605H1386.9021A507.80955,507.80955,0,0,0,1470.37671,1198.70259Z" fill="none"/><path d="M543.85681,1676.52241a814.7633,814.7633,0,0,0,912.28638,0q8.86359-5.98827,17.57495-12.22461H526.28186Q534.99658,1670.52559,543.85681,1676.52241Z" fill="none"/><path d="M325.91846,730.39229c30.09668-42.03907,60.59472-11.2334,39.01953,3.03613-10.82324-1.8916-23.83985-.45215-34.93164,2.38672,15.46386,21.50195,28.65625,51.53418,30.9873,82.95215l-1.40429.56543c-11.96582-26.99121-36.85938-55.02442-55.208-68.83887l19.96582-30.07227c1.85351,1.56446,2.39844,3.92774.7959,9.06055Zm32.13672-94.66114c2.32226,1.376,3.335,3.55079,2.08105,7.86231l122.415,52.085c14.76855,6.28418,21.60156,13.4541,12.86719,40.35938-7.335-2.34571-12.98047-3.19825-17.72852-1.14747-4.91308,1.9795-9.25879,5.36231-15.53223,15.09668l-2.13281-.90722s11.08692-22.415,13.042-27.00977c1.25684-2.9541.69043-4.35742-1.60644-5.335L343.62939,662.34639Zm49.45507,89.64747a8.61626,8.61626,0,0,1-1.03906,5.17773c10.875,13.15527,21.75488,27.668,30.03418,41.46191,2.10742-8.59863,4.12109-17.43261,6.20606-26.42968l1.94433.44043c2.29395,17.83691,3.76953,44.43359,3.31348,85.13183a8.24166,8.24166,0,0,1,2.24121,6.57422l-31.04492,1.90723c3.22656-11.22461,9.16015-34.28125,15.6709-60.96875-13.60645-9.47168-33.52149-22.791-49.6836-33.543l19.56738-20.93848-49.39257-21.01562,13.84179-25.7002c2.08789,1.46973,3.24024,3.31641,2.01172,8.02637l79.915,34.00195c1.64063.69824,1.57422,11.3291-1.77637,19.20606l-1.60644,3.77343Zm-43.42773,12.33789s12.67187-7.01172,21.06934-10.80371c1.59668,1.26074,1.71777,3.251.74121,5.54785l-23.73828,55.792-5.1543-.6416,15.15137-35.60938Zm3.30957,65.55566c40.57031-30.21973,66.34863,4.39258,42.27637,13.14355-12.94239-6.47656-29.20215-9.71191-42.38867-11.05859Zm3.29785-28.248c40.55371-27.90136,64.85742,7.44043,40.57227,15.3252-12.499-7.0625-28.01075-11.14356-40.75391-13.07715Z" fill="#0d1c33"/><path d="M526.21924,462.43916l-2.458-23.2373s20.33789-2.624,33.08887-3.58594c.98437,1.77832.07324,3.91016-1.84473,5.77539L451.61865,542.0085l-4.50488-2.583ZM558.95166,512.948l-2.2168-22.47754s19.4541-2.50976,31.95313-3.47461c.98437,1.77832.07226,3.91016-1.84375,5.77539l-85.752,83.45313-4.50489-2.582Zm60.09961,31.83887-2.45117-23.74219s20.58984-2.62109,33.59277-3.5791c.98438,1.7793.07324,3.91113-1.84473,5.77637L531.28662,637.1667l-4.50391-2.583Z" fill="#0d1c33"/><path d="M708.92334,397.36885c11.28027,28.51953,25.13867,66.9502,5.26172,103.959l-2.28418-.43945c1.21484-31.35254-12.06543-65.40918-23.87012-95.25586L667.04248,352.572l27.32227-1.21972,44.93554-17.77344a17.82066,17.82066,0,0,1-4.999-.5166,37.09345,37.09345,0,0,0-14.3125-14.85547l.666-1.22266c32.80859-15.46972,37.73242,4.25,27.92968,12.92188l35.81739-14.167,4.97558-19.418s16.501,5.36133,26.32031,9.33984c.22364,2.02051-1.10546,3.50488-3.59277,4.48926L693.05029,357.2419Zm78.10645-24.56738L782.30713,360.863a97.91375,97.91375,0,0,1-13.30176,14.84961l13.02246-2.4668c.45117,3.08106-1.24512,5.09473-4.92676,6.93457-1.92968,1.91309-4.55468,4.48535-7.3457,7.124l28.52051-11.28125,5.14551-12.19825,22.36035,6.11231a7.88781,7.88781,0,0,1-3.293,3.79492l10.55957,26.69629c.52539,1.32617-4.09766,6.60645-9.6084,10.12891l6.55664.09082a4.18058,4.18058,0,0,1-.67187,2.18359c25.0166-4.14258,20.96289,16.63672,8.957,12.94727a23.49352,23.49352,0,0,0-3.25977-4.84668c-3.65429,3.36328-8.57031,7.418-13.45312,11.07422a10.86972,10.86972,0,0,1-1.043,4.63183l10.94336-4.32812c5.63769-2.23047,11.043-4.56055,13.36523-5.47852,2.08985-1.01953,3.11914-1.80957,3.82129-3.42969.77149-2.41406,1.08985-7.90918,1.18555-15.42578l1.82324-.7207,5.67871,12.90234c5.86231-.209,8.04,1.42188,9.41895,4.90332,2.95117,7.46192-2.20313,13.33594-30.72461,24.61621l-17.90821,7.084c-16.415,6.49316-20.9121,4.82031-25.63476-7.11817l-6.49121-16.416c-5.63184,17.75976-20.31055,37.37207-52.78418,60.956l-2.24512-1.79687c26.88574-25.5918,35.57129-45.32617,36.36621-62.707L756.894,433.81026l1.50879,3.81445c.72071,1.82422-6.52637,9.67676-14.81836,12.95605l-2.81836,1.11426-21.31543-53.88867,24.4375-.27051,12.76758-5.0498c-1.30762-4.27735-3.14062-9.87989-4.418-13.59375l10.33887-1.97949a56.81151,56.81151,0,0,0,8.32813-30.332l-7.959,3.14844-1.21875-1.62793c.22461,2.02149-1.10644,3.50586-3.26172,4.3584l-20.06347,7.93652.58984,1.49219c31.13965-11.93359,26.32324,17.584,9.1543,13.44531a23.82722,23.82722,0,0,0-7.31641-8.80273l7.47559,18.90234c.46,1.16114-5.72071,6.86621-12.02247,9.3584l-2.98437,1.18067L728.314,383.3708a100.189,100.189,0,0,1-15.23828,18.68164l-2.41015-1.73047c4.77246-9.75,6.53711-20.80273,6.18066-31.40039l-14.25976,5.64063-3.16309-4.11719,20.56152-8.13281-5.11621-12.93359,22.84082-6.7334c.45508,2.12109-.11523,4.07226-3.832,6.30957l2.6875,6.79883,2.81934-1.11524,3.62695-13.13183s11.44238,3.71972,18.71582,6.59472l-1.94434-2.49023,14.26075-5.64063-4.91895-12.43554,24.56445-7.22364c.45508,2.12012-.11621,4.07129-3.833,6.30957l2.42675,6.13477,6.63282-2.623,3.76562-14.7207s12.76465,4.15527,20.40137,7.46289c.38965,1.95508-.94043,3.43945-3.26172,4.35742L796.773,336.34932c9.62109,3.48047,22.90234,2.63769,34.76855-.33008l.65528,1.6582c-5.94532,4.84473-7.72949,12.45313-5.85059,23.02344-11.68066-1.89941-21.3916-8.0293-30.12793-17.99609l7.47656,18.90234c.459,1.16113-6.55078,7.19336-13.34961,9.88281Zm-42.46485,29.83691,4.13086,10.44531,15.58691-6.16406c-1.04589-3.61426-2.09179-7.22656-3.46875-10.709Zm22.7627,21.67578a77.32019,77.32019,0,0,0-1.70606-12.55566l-15.08887,5.96875,4.5254,11.44043Zm17.03222-37.417q1.31983,5.51806,2.63868,11.03613l18.57226-7.3457L801.437,380.14131Zm23.0459,8.333-19.56543,7.74023a109.01289,109.01289,0,0,1,.87793,12.88281l23.21387-9.18164Zm10.79785,42.32617-10.42187-10.834s2.125-1.416,2.98828-2.14161c1.8623-2.0791,1.82324-8.96582,1.50488-12.67578l-12.43457,4.91895.78711,1.98926,7.73926,19.5664c.78711,1.99024,1.71191,2.39063,6.85254.35742Zm9.35938-22.877a9.62738,9.62738,0,0,1-2.9834,1.17968,58.34425,58.34425,0,0,1-4.96191,7.332c3.74707-1.67383,7.76074-3.64551,11.9414-5.68165A27.081,27.081,0,0,0,827.563,414.6794Z" fill="#0d1c33"/><path d="M1081.11133,408.08369s9.77344,10.19532,14.80664,16.72266c-.57422,1.9502-2.19922,2.80762-4.69531,2.75488l-162.41748-3.42968-1.32129-5.02247,23.71191.501,1.18164-55.98144,8.84375,3.57519,1.07324-50.81152,25.11231,10.16211,52.95068,1.11914,11.12891-11.71582,22.459,17.59668c-1.10156,1.40429-3.27343,2.96289-7.0332,3.59765l-.53125,25.1377c-.00977.53515-2.34766,1.37793-5.39648,2.20508L1082.24805,379.57c-1.28711,1.75586-3.26953,2.78516-8.10157,3.57422l-.7871,37.26172Zm-48.28906-137.46875c-.76172,2.30274-2.92774,3.50586-9.002,3.91211,16.44727,15.15235,49.84571,21.56446,75.12891,23.7041l-.06055,2.85254c-9.51758,3.00977-15.25586,12.877-16.50586,21.41211-27.63867-8.78906-50.334-23.71484-61.27539-46.06347-17.0332,21.04394-54.20459,41.30566-91.29346,49.26269l-.84667-2.1582c32.03515-13.59277,63.65625-41.28516,71.03808-61.46289Zm-71.07081,96.77832,15.917,6.40039,69.88818,1.47657,7.69141-9.46973a49.10281,49.10281,0,0,1-9.65235,1.04492l-4.27929-.08984.16992-8.02344-55.98291-1.18262-.06641,3.21c-.043,1.96094-11.20508,6.89747-20.833,6.69434Zm13.334,52.72168,8.915.1875.87305-41.3623-8.91407-.18848Zm51.83838-123.583s12.28515,9.53418,19.99023,16.29589c-.57617,1.9502-2.55468,2.80079-5.05273,2.748l-58.83447-1.24316-1.31934-5.02149,33.69482.71192Zm-40.87061,34.98828-.44433,21.03808,55.98291,1.18164.44336-21.03711Zm30.91162,48.09765-8.91406-.18847-.87305,41.36328,8.91407.1875Zm22.30469,41.85254,8.91406.1875.873-41.3623-8.91406-.18848Z" fill="#0d1c33"/><path d="M1318.33008,383.38155s9.54687,17.47363,14.64258,28.46582c-1.2461,1.60742-3.39844,1.67968-5.86914.65429l-76.92579-31.89941c-6.02343,7.541-11.83984,14.58789-16.48046,20.19238l35.58007,14.75391,18.60157-7.15039,12.9707,29.70312c-2,1.10059-3.85156.91211-7.77734-.33008-12.33789,4.15039-30.67188,8.32325-46.66211,10.57227,23.10156,24.83008,7.98047,47.32422-9.99219,36.20312-7.91016-21.42675-28.45117-49.63476-47.58594-65.87109l1.57422-1.4707c23.48242,7.61426,39.62891,16.627,50.27539,25.86816a308.05745,308.05745,0,0,0,26.84766-22.84375L1231.291,405.20186l-13.10352,6.92187-17.19727-22.76855a47.1625,47.1625,0,0,1,7.47266-1.72754c4.69727-4.80859,10.17188-11.03223,15.85352-17.749L1180.666,351.777l.5957-5.1582,46.28516,19.19336c6.35156-7.4043,12.81445-15.53516,18.74023-23.30957l-43.1582-17.89649.5957-5.1582,45.793,18.98926c8.48633-11.15234,15.834-21.42481,19.78711-27.70117l27.27929,21.7373c-1.64453,1.63477-4.43945,2.792-8.68359.45313l-12.6875,16.167,23.55469,9.76758,18.65039-10.99121s9.06836,16.30761,13.96875,26.834c-1.24609,1.60742-3.39844,1.67969-5.70508.72363l-53.69922-22.26855c-5.78906,7.44433-12.25,15.57617-18.57422,23.37793L1298.707,395.322Z" fill="#0d1c33"/><path d="M1552.76563,536.10908a13.95383,13.95383,0,0,1-8.6211-2.36328l-79.56445,82.57032c-11.50781,11.94238-20.39258,15.76464-41.51758-1.374,5.18164-6.15039,8.623-11.00683,9.30078-15.30762.67188-4.55273.21485-8.70507-5.0918-16.04882l1.60938-1.66895s11.19922,12.27832,13.76758,14.75293c2.05469,1.98047,3.55859,1.44727,5.04492-.09375l22.14844-22.98535-21.959-21.16016-38.48242,39.93653c-1.11328,1.15625-10.0957-.31641-19.59961-9.47364l-3.33789-3.21777,43.18555-44.81641-20.67383-19.92187c-18.78516,14.0957-41.81445,23.60351-73.34961,16.49414l-.28906-2.0127c32.28711-6.77832,57.43945-31.081,80.70117-55.22265l45.41211-47.12793,14.127,27.23242,55.21875,53.208,17.87891-1.59278Zm-119.65235-4.84472L1459.7168,503.655l-19.13282-18.4375-6.1875,6.4209a237.25956,237.25956,0,0,1-21.44531,20.19824Zm36.30078-75.96778-25.36523,26.3252,19.13281,18.4375,25.36719-26.3252Zm3.89258,114.69825,26.60352-27.60938-21.959-21.15918-26.60351,27.60938Zm33.47656-78.68946-25.36718,26.3252,21.959,21.15918,25.36719-26.3252Z" fill="#0d1c33"/><path d="M1668.96875,778.21455s-4.63281,17.5586-8.33594,28.29785c-2.01367.28907-3.61133-1.15625-4.67578-3.61035l-15.88476-36.65039-6.63086,27.751c-1.5-.32129-3.58985-1.55371-5.5918-4.37891l-35.50391,15.38965c-1.47265.63867-11.32422-9.08594-14.87109-17.26758l-1.84375-4.2539,7.36328-3.19141-6.668-15.37988-16.85156,7.30469,12.97852,29.94238,20.23046,5.41992s-4.25781,17.97754-7.584,29.13672c-2.01367.28906-3.61133-1.15625-4.67578-3.60938l-25.53125-58.90429-23.88672,10.35449c-.88867.19141-7.44531-5.51856-12.9082-18.11719l-1.98438-4.582,28.14258-12.19824-26.38281-60.86621,4.01562-3.29492,26.94727,62.17578,16.85351-7.30469-7.09179-16.36231-3.59961,1.56055c-2.127.92188-11.97266-7.44433-16.22852-17.26172l-1.418-3.27148,62.668-27.16211,1.35938,29.14648L1624.5,760.36787l15.42969,5.55567-48.22656-111.26172,4.01562-3.29492,20.99023,48.43261a18.93127,18.93127,0,0,1,1.03125-5.69433c7.59766-3.09961,14.1543-9.04981,18.32618-13.77344l1.15039.86133c10.03711,32.57715-6.77735,37.72754-15.61328,29.89551l11.418,26.34277a203.407,203.407,0,0,0,26.81836-4.043l-35.459-81.81055,4.01367-3.29492,27.6582,63.8125a17.49854,17.49854,0,0,1,.22852-7.09668c6.40234-3.16406,11.76367-9.18066,14.48633-13.66406l1.07812.69824c16.834,33.90723-4.38672,37.85742-12.88476,26.77051l14.32617,33.05078,20.41406,4.95117s-4.63281,17.55762-8.33594,28.29688c-2.01367.28906-3.61132-1.15528-4.67382-3.61035l-18.72461-43.19532,3.47656,25.50879c-2.248.19629-4.33594-1.03613-5.80273-4.87011a165.1652,165.1652,0,0,1-23.99415-15.44922l12.97852,29.94238Zm-66.99414-6.14062-24.39648-56.28516L1563.17969,722.03l24.39648,56.28516Zm-5.74414-64.37012-14.07031,6.09961,24.39648,56.28516,14.07031-6.09864Z" fill="#0d1c33"/><path d="M1148.26,1452.96431c-11.00977,11.11523-16.8291,26.93262-16.8291,45.74414,0,42.55078,27.999,61.59766,55.74707,61.59766,27.67431,0,55.59863-19.04688,55.59863-61.59766,0-18.8916-5.77295-34.72852-16.69531-45.79785-9.958-10.0918-23.77393-15.64942-38.90332-15.64942C1172.11108,1437.26118,1158.28979,1442.83833,1148.26,1452.96431Zm63.11719,45.74414c0,15.30371-2.35791,50.89844-24.19922,50.89844-21.84033,0-24.19824-35.59473-24.19824-50.89844,0-15.25879,2.35791-50.74805,24.19824-50.74805C1202.33081,1447.9604,1211.3772,1466.93208,1211.3772,1498.70845Z" fill="none"/><path d="M1013.14288,1546.08833l-13.56006,1.35547v9.86231h50.04731c18.93554,0,33.13965-3.57032,42.21777-10.61133a28.31172,28.31172,0,0,0,11.28027-23.08789c0-15.02246-9.43017-24.80469-28.06982-29.17871,14.25928-4.91016,21.47021-13.42872,21.47021-25.419,0-13.11426-7.22558-28.748-41.64843-28.748H999.58282v9.8877l13.563,1.2041c.38575,14.41211.38575,29.165.38575,43.45508v5.40039C1013.53156,1515.37935,1013.53156,1531.04243,1013.14288,1546.08833Zm30.51654-95.12793h4.6211c13.105,0,18.94922,5.84375,18.94922,18.94922,0,13.9668-6.93067,21.04883-20.59961,21.04883h-3.34961C1043.282,1477.17036,1043.302,1464.03169,1043.65942,1450.9604Zm4.32129,50.39844c16.96143,0,24.19825,6.78809,24.19825,22.69922,0,14.84961-8.05665,22.69922-23.29883,22.69922h-5.21485c-.36572-14.50879-.38379-29.5625-.38476-45.39844Z" fill="none"/><polygon points="801.284 1557.306 859.831 1557.306 859.831 1547.463 846.464 1546.014 816.124 1489.216 839.616 1452.14 855.781 1450.06 855.781 1440.261 814.933 1440.261 814.933 1450.04 826.456 1451.629 810.615 1479.024 795.758 1451.33 807.933 1450.125 807.933 1440.261 749.236 1440.261 749.236 1450.134 762.762 1451.421 790.69 1503.698 764.18 1545.317 750.136 1547.577 750.136 1557.306 790.084 1557.306 790.084 1547.719 778.192 1545.849 796.221 1514.082 813.46 1546.238 801.284 1547.442 801.284 1557.306" fill="none"/><path d="M917.9339,1549.60689a22.72139,22.72139,0,0,1-3.36133-.21l-2.11084-12.92188c-1.39941-10.41992-5.58691-15.06738-13.57715-15.06738a11.71342,11.71342,0,0,0-11.686,8.50488l-.14453.46191.03857.4834c1.50293,18.7002,15.22607,28.999,38.64063,28.999,26.57617,0,43.74853-13.05176,43.74853-33.25,0-14.64551-7.749-24.13086-23.61865-28.79688,13.49414-4.98047,20.31885-13.88086,20.31885-26.55078,0-18.18945-14.05567-29.04883-37.59864-29.04883-22.29541,0-36.41455,10.7627-36.84765,28.08789l-.01758.70508.353.61035a11.93627,11.93627,0,0,0,10.56347,5.74707c7.3169,0,12.31348-4.35547,13.70362-11.9248l2.51074-12.95117a24.90717,24.90717,0,0,1,2.83447-.17481c10.38428,0,15.64941,6.57813,15.64941,19.55078,0,14.36524-6.57714,21.64844-19.54931,21.64844H910.1839v10.84961h8.34961c13.96728,0,21.04931,7.58691,21.04931,22.54883C939.58282,1541.97017,932.29913,1549.60689,917.9339,1549.60689Z" fill="none"/><polygon points="1316.68 1557.306 1375.228 1557.306 1375.228 1547.463 1361.861 1546.014 1331.522 1489.216 1355.012 1452.14 1371.178 1450.06 1371.178 1440.261 1330.329 1440.261 1330.329 1450.04 1341.853 1451.629 1326.012 1479.024 1311.155 1451.33 1323.33 1450.125 1323.33 1440.261 1264.632 1440.261 1264.632 1450.134 1278.159 1451.421 1306.087 1503.698 1279.576 1545.317 1265.532 1547.577 1265.532 1557.306 1305.481 1557.306 1305.481 1547.719 1293.589 1545.849 1311.618 1514.082 1328.857 1546.238 1316.68 1547.442 1316.68 1557.306" fill="none"/><path d="M1470.37671,1198.70259A510.79014,510.79014,0,1,0,613.098,1333.0605H1386.9021A507.80955,507.80955,0,0,0,1470.37671,1198.70259Z" fill="none"/><path d="M1000,1825.851A822.14226,822.14226,0,0,1,509.28418,1664.2978H463.642q25.56582,20.67261,52.606,39.30665a852.59179,852.59179,0,0,0,967.50416,0q27.00109-18.60132,52.606-39.30665h-45.64221A822.14212,822.14212,0,0,1,1000,1825.851Z" fill="none"/><path d="M676.47443,1569.79146c-4.42823-5.81348-8.75684-9.68457-15.48828-9.68457-8.34864,0-14.7754,5.88672-14.94874,13.69238l-.01513.69043.34082.59961c4.15283,7.31152,11.09521,10.86523,21.22314,10.86523,17.17237,0,31.2002-10.14941,37.54834-27.16015,4.87061-9.9668,6.94971-23.7793,6.94971-46.13672v-18.44922c0-14.19824,0-28.85645.38477-42.85449l13.56494-1.20508v-9.8877H666.286v9.88477l15.02393,1.35156c.29638,27.38672.59277,47.53809.81054,62.35742.21973,14.93555.36475,24.80274.36475,31.95118,0,12.65625-1.25049,21.69531-3.72266,26.96Z" fill="none"/><path d="M1836.4303,827.892a848.87676,848.87676,0,0,0-128.44153-305.21875,856.38348,856.38348,0,0,0-375.67285-309.37256,849.18956,849.18956,0,0,0-160.20777-49.7312,862.49792,862.49792,0,0,0-344.2163,0A848.88362,848.88362,0,0,0,522.67346,292.01094,856.38814,856.38814,0,0,0,213.301,667.68379,849.199,849.199,0,0,0,163.5697,827.892a861.87581,861.87581,0,0,0,4.13123,363.25391,849.04494,849.04494,0,0,0,45.93512,141.91455h30.438A822.98783,822.98783,0,0,1,174.14886,1000c0-456.105,369.74616-825.85107,825.85114-825.85107S1825.8512,543.895,1825.8512,1000A822.988,822.988,0,0,1,1755.926,1333.0605h30.4375a849.34607,849.34607,0,0,0,47.2611-147.812A861.99222,861.99222,0,0,0,1836.4303,827.892Z" fill="none"/><path d="M1815.8512,1000a821.92309,821.92309,0,0,0-16.57557-164.43286,811.32221,811.32221,0,0,0-122.75317-291.7102A818.26284,818.26284,0,0,0,1317.563,248.25825a811.67573,811.67573,0,0,0-153.13-47.53393,823.89819,823.89819,0,0,0-328.866,0A811.32029,811.32029,0,0,0,543.85681,323.47749,818.26343,818.26343,0,0,0,248.25842,682.437,811.65748,811.65748,0,0,0,200.7243,835.56709a823.897,823.897,0,0,0,0,328.86572,811.65725,811.65725,0,0,0,47.53412,153.13013q3.29124,7.78163,6.761,15.49756H600.01984A518.37064,518.37064,0,0,1,479.51062,1000C479.51062,712.5417,712.54169,479.5107,1000,479.5107S1520.48938,712.5417,1520.48938,1000a518.37092,518.37092,0,0,1-120.50916,333.06055h345.00037q3.458-7.71972,6.761-15.49756a811.65631,811.65631,0,0,0,47.534-153.13013A821.923,821.923,0,0,0,1815.8512,1000Z" fill="none"/><path d="M543.85681,1676.52241a814.7633,814.7633,0,0,0,912.28638,0q8.86359-5.98827,17.57495-12.22461H526.28186Q534.99658,1670.52559,543.85681,1676.52241Z" fill="none"/><path d="M1162.97974,1498.70845c0,15.30371,2.35791,50.89844,24.19824,50.89844,21.84131,0,24.19922-35.59473,24.19922-50.89844,0-31.77637-9.04639-50.74805-24.19922-50.74805C1165.33765,1447.9604,1162.97974,1483.44966,1162.97974,1498.70845Z" fill="#0d1c33"/><path d="M1000,106.22334c-493.619,0-893.77655,400.15747-893.77655,893.77686a890.258,890.258,0,0,0,86.60626,384.26416h.00006a895.81571,895.81571,0,0,0,167.57,240.03344h.00006c162.306,166.259,388.89862,269.47876,639.60016,269.47876,250.70117,0,477.29419-103.21972,639.6001-269.47876h.00012a895.57,895.57,0,0,0,172.81592-251.2373h.00012a890.44068,890.44068,0,0,0,81.36035-373.0603C1893.77661,506.38081,1493.619,106.22334,1000,106.22334Zm483.75208,1597.38111a852.59159,852.59159,0,0,1-967.50416,0q-27.001-18.60132-52.606-39.30665h45.64221a826.04805,826.04805,0,0,0,981.43164,0H1536.358Q1510.7923,1684.97041,1483.75208,1703.60445Zm-172.13367-189.522-18.02979,31.7666,11.89209,1.87012v9.58692h-39.94824v-9.7295l14.04346-2.25976,26.51123-41.61914-27.92822-52.27637-13.52686-1.28711v-9.873h58.69824v9.86426l-12.17529,1.2041,14.85693,27.69434,15.84131-27.39453-11.52392-1.58985v-9.77832H1371.178V1450.06l-16.166,2.08008-23.49023,37.07617,30.33935,56.79785,13.3667,1.44922v9.84278h-58.54785v-9.86426l12.17676-1.2041ZM613.098,1333.0605a510.78993,510.78993,0,1,1,773.80414,0Zm629.67865,165.648c0,42.55078-27.92432,61.59766-55.59863,61.59766-27.748,0-55.74707-19.04688-55.74707-61.59766,0-18.81152,5.81933-34.62891,16.8291-45.74414,10.02978-10.126,23.85107-15.70313,38.918-15.70313,15.12939,0,28.94531,5.55762,38.90332,15.64942C1237.00366,1463.97993,1242.77661,1479.81685,1242.77661,1498.70845Zm-229.6308-47.35547-13.563-1.2041v-9.8877h55.29731c34.42285,0,41.64843,15.63379,41.64843,28.748,0,11.99023-7.21093,20.50879-21.47021,25.419,18.63965,4.374,28.06982,14.15625,28.06982,29.17871a28.31172,28.31172,0,0,1-11.28027,23.08789c-9.07812,7.041-23.28223,10.61133-42.21777,10.61133H999.58282v-9.86231l13.56006-1.35547c.38868-15.0459.38868-30.709.38868-45.87988v-5.40039C1013.53156,1480.518,1013.53156,1465.76509,1013.14581,1451.353Zm-94.6123,53.00586H910.1839v-10.84961h7.59961c12.97217,0,19.54931-7.2832,19.54931-21.64844,0-12.97265-5.26513-19.55078-15.64941-19.55078a24.90717,24.90717,0,0,0-2.83447.17481L916.3382,1465.436c-1.39014,7.56933-6.38672,11.9248-13.70362,11.9248a11.93627,11.93627,0,0,1-10.56347-5.74707l-.353-.61035.01758-.70508c.4331-17.32519,14.55224-28.08789,36.84765-28.08789,23.543,0,37.59864,10.85938,37.59864,29.04883,0,12.66992-6.82471,21.57031-20.31885,26.55078,15.86963,4.666,23.61865,14.15137,23.61865,28.79688,0,20.19824-17.17236,33.25-43.74853,33.25-23.41456,0-37.1377-10.29883-38.64063-28.999l-.03857-.4834.14453-.46191a11.71342,11.71342,0,0,1,11.686-8.50488c7.99024,0,12.17774,4.64746,13.57715,15.06738l2.11084,12.92188a22.72139,22.72139,0,0,0,3.36133.21c14.36523,0,21.64892-7.63672,21.64892-22.69922C939.58282,1511.94575,932.50079,1504.35884,918.53351,1504.35884Zm-122.3125,9.72363-18.02881,31.7666,11.8916,1.87012v9.58692H750.13556v-9.7295l14.04394-2.25976,26.51075-41.61914L762.762,1451.42134l-13.52636-1.28711v-9.873h58.69775v9.86426l-12.17529,1.2041,14.85693,27.69434,15.84131-27.39453-11.52344-1.58985v-9.77832h40.84815V1450.06l-16.16553,2.08008-23.49121,37.07617,30.33984,56.79785,13.36719,1.44922v9.84278H801.28351v-9.86426l12.17676-1.2041Zm-114.10059-.22754c-.21777-14.81933-.51416-34.9707-.81054-62.35742L666.286,1450.146v-9.88477H726.034v9.8877l-13.56494,1.20508c-.38477,13.998-.38477,28.65625-.38477,42.85449v18.44922c0,22.35742-2.0791,36.16992-6.94971,46.13672-6.34814,17.01074-20.376,27.16015-37.54834,27.16015-10.12793,0-17.07031-3.55371-21.22314-10.86523l-.34082-.59961.01513-.69043c.17334-7.80566,6.6001-13.69238,14.94874-13.69238,6.73144,0,11.06005,3.87109,15.48828,9.68457l2.28808,2.97461c2.47217-5.26465,3.72266-14.30371,3.72266-26.96C682.48517,1538.65767,682.34015,1528.79048,682.12042,1513.85493Zm791.59772,150.44287q-8.71472,6.22779-17.57495,12.22461a814.76351,814.76351,0,0,1-912.28638,0q-8.86368-5.98827-17.57495-12.22461Zm271.26245-331.2373H1399.98022A518.37092,518.37092,0,0,0,1520.48938,1000c0-287.45825-233.03113-520.48925-520.48938-520.48925S479.51062,712.5417,479.51062,1000A518.37064,518.37064,0,0,0,600.01984,1333.0605H255.01941q-3.45786-7.71972-6.761-15.49756a811.65725,811.65725,0,0,1-47.53412-153.13013,823.897,823.897,0,0,1,0-328.86572,811.324,811.324,0,0,1,122.75324-291.7102A818.26242,818.26242,0,0,1,682.43707,248.25825a811.67515,811.67515,0,0,1,153.13-47.53393,823.89819,823.89819,0,0,1,328.866,0,811.3191,811.3191,0,0,1,291.71021,122.75317A818.26343,818.26343,0,0,1,1751.74158,682.437a811.65654,811.65654,0,0,1,47.534,153.13013,823.89067,823.89067,0,0,1,0,328.86572,811.65631,811.65631,0,0,1-47.534,153.13013Q1748.45025,1325.34457,1744.98059,1333.0605Zm41.38294,0H1755.926A822.988,822.988,0,0,0,1825.8512,1000c0-456.105-369.74622-825.85107-825.8512-825.85107S174.14886,543.895,174.14886,1000A822.98783,822.98783,0,0,0,244.074,1333.0605h-30.438A849.04494,849.04494,0,0,1,167.70093,1191.146,861.87581,861.87581,0,0,1,163.5697,827.892,848.87828,848.87828,0,0,1,292.01129,522.67329,856.383,856.383,0,0,1,667.68408,213.30073a849.18821,849.18821,0,0,1,160.20777-49.7312,862.49792,862.49792,0,0,1,344.2163,0,848.88362,848.88362,0,0,1,305.21839,128.44141A856.38783,856.38783,0,0,1,1786.6991,667.68379,849.19442,849.19442,0,0,1,1836.4303,827.892a861.99222,861.99222,0,0,1-2.80567,357.35645A849.34607,849.34607,0,0,1,1786.36353,1333.0605Z" fill="#0d1c33"/><path d="M1048.88013,1546.75728c15.24218,0,23.29883-7.84961,23.29883-22.69922,0-15.91113-7.23682-22.69922-24.19825-22.69922h-4.70019c.001,15.83594.019,30.88965.38476,45.39844Z" fill="#0d1c33"/><path d="M1067.22974,1469.90962c0-13.10547-5.84424-18.94922-18.94922-18.94922h-4.6211c-.35742,13.07129-.37744,26.21-.3789,39.99805h3.34961C1060.29907,1490.95845,1067.22974,1483.87642,1067.22974,1469.90962Z" fill="#0d1c33"/></svg>