<svg id="图层_1" data-name="图层 1" xmlns="http://www.w3.org/2000/svg" xmlns:xlink="http://www.w3.org/1999/xlink" viewBox="0 0 40 40"><defs><linearGradient id="未命名的渐变_2" x1="-912.37848" y1="1166.72928" x2="-906.16462" y2="1160.51542" gradientTransform="translate(-1149.48165 -895.04178) rotate(-90)" gradientUnits="userSpaceOnUse"><stop offset="0.00479" stop-color="#024ea4"/><stop offset="1" stop-color="#2682ea"/></linearGradient><linearGradient id="未命名的渐变_7" x1="11.84517" y1="11.93422" x2="27.17225" y2="27.2613" gradientUnits="userSpaceOnUse"><stop offset="0" stop-color="#024ea4"/><stop offset="1" stop-color="#2682ea"/></linearGradient><linearGradient id="未命名的渐变_2-2" x1="13.52956" y1="26.55951" x2="28.84359" y2="11.24548" gradientTransform="matrix(1, 0, 0, 1, 0, 0)" xlink:href="#未命名的渐变_2"/></defs><title>事件 副本</title><polygon points="11.465 13.742 16.264 18.541 18.452 16.353 13.653 11.554 10.95 11.039 11.465 13.742" fill="url(#未命名的渐变_2)"/><rect x="23.10207" y="28.99724" width="13.27107" height="1.65888" transform="translate(-12.3807 29.7637) rotate(-45)" fill="#404448"/><rect x="17.17437" y="18.3836" width="1.8267" height="7.23547" transform="translate(-10.25952 19.23399) rotate(-45)" fill="none"/><rect x="20.99891" y="14.55885" width="1.82695" height="7.23554" transform="translate(-6.43482 20.81821) rotate(-45)" fill="none"/><polygon points="31.646 13.56 32.85 7.239 26.529 8.444 21.173 13.8 26.289 18.916 31.646 13.56" fill="none"/><rect x="9.72623" y="22.91254" width="7.66524" height="7.23542" transform="translate(-14.78806 17.35696) rotate(-44.99773)" fill="none"/><polygon points="8.355 13.56 7.15 7.239 13.472 8.444 18.827 13.8 20 12.627 14.283 6.91 5.064 5.153 6.821 14.372 12.538 20.089 13.711 18.916 8.355 13.56" fill="#404448"/><polygon points="26.29 21.262 31.71 26.682 26.593 31.799 21.173 26.378 20 27.551 26.593 34.144 34.055 26.682 27.462 20.089 26.29 21.262" fill="#404448"/><path d="M26.52622,27.77059l1.15533-1.15532a.70466.70466,0,0,0,0-.99653l-3.06492-3.06492-2.1519,2.15181,3.065,3.065A.70464.70464,0,0,0,26.52622,27.77059Z" fill="url(#未命名的渐变_7)"/><rect x="17.85429" y="14.20266" width="1.82703" height="1.65871" transform="translate(-5.13228 17.67362) rotate(-45)" fill="#404448"/><polygon points="13.407 31.799 8.291 26.682 13.711 21.262 12.538 20.089 5.945 26.682 13.407 34.144 20 27.551 18.827 26.378 13.407 31.799" fill="#404448"/><rect x="14.02988" y="18.02739" width="1.8266" height="1.65871" transform="translate(-8.95698 16.08944) rotate(-45)" fill="#404448"/><polygon points="26.529 8.444 32.85 7.239 31.646 13.56 26.289 18.916 27.462 20.089 33.18 14.372 34.937 5.153 25.717 6.91 20 12.627 21.173 13.8 26.529 8.444" fill="#404448"/><rect x="24.14363" y="20.49183" width="1.8269" height="1.65905" transform="translate(-7.73748 23.9622) rotate(-44.99876)" fill="#404448"/><rect x="20.31893" y="24.31655" width="1.82681" height="1.65896" transform="translate(-11.56212 22.37863) rotate(-45)" fill="#404448"/><rect x="19.17084" y="12.97025" width="1.65872" height="1.65872" transform="translate(-3.89988 18.18409) rotate(-45)" fill="#404448"/><rect x="19.1706" y="25.5489" width="1.65878" height="1.65892" transform="translate(-12.79446 21.86817) rotate(-45)" fill="#404448"/><rect x="12.88142" y="19.25972" width="1.6589" height="1.65869" transform="translate(-10.18929 15.579) rotate(-45)" fill="#404448"/><rect x="25.46008" y="19.25946" width="1.65876" height="1.65908" transform="translate(-6.50506 24.47339) rotate(-45)" fill="#404448"/><rect x="21.35364" y="22.40421" width="3.5821" height="1.65899" transform="translate(-9.64979 23.17011) rotate(-44.99885)" fill="#404448"/><rect x="15.06437" y="16.1151" width="3.5821" height="1.65871" transform="translate(-7.0447 16.88197) rotate(-45.00115)" fill="#404448"/><path d="M26.34735,11.55415,12.67093,25.23056a.71638.71638,0,0,0,0,1.01306l1.17452,1.17451a.71635.71635,0,0,0,1.013,0L28.53492,13.74172l.515-2.70262Z" fill="url(#未命名的渐变_2-2)"/><rect x="3.62685" y="28.99724" width="13.27107" height="1.65888" transform="translate(24.09643 1.47943) rotate(45)" fill="#404448"/><path d="M6.21782,28.974H10.718a0,0,0,0,1,0,0v4.29431a1,1,0,0,1-1,1H7.21782a1,1,0,0,1-1-1V28.974a0,0,0,0,1,0,0Z" transform="translate(24.83974 3.27392) rotate(45)" fill="#404448"/><path d="M29.26777,28.95977h4.50016a0,0,0,0,1,0,0v4.29431a1,1,0,0,1-1,1H30.26777a1,1,0,0,1-1-1V28.95977a0,0,0,0,1,0,0Z" transform="translate(-13.1181 31.54394) rotate(-45)" fill="#404448"/></svg>