<svg id="图层_1" data-name="图层 1" xmlns="http://www.w3.org/2000/svg" viewBox="0 0 40 40"><title>事件</title><polygon points="10.893 10.459 11.417 13.209 13.644 10.983 10.893 10.459" fill="#fff"/><rect x="22.72657" y="27.39638" width="11.6664" height="1.4583" transform="translate(-11.52279 28.43259) rotate(-45)" fill="#fff"/><path d="M30.85228,33.56523a1.4531,1.4531,0,0,1-1.03107-.42652l-3.13734-3.13734,3.75185-3.75149,3.13734,3.13734a1.459,1.459,0,0,1,0,2.06212l-1.68972,1.68937A1.45308,1.45308,0,0,1,30.85228,33.56523ZM28.746,30.00137l2.10628,2.10627,1.69043-1.69007-2.107-2.10556Z" fill="#fff"/><rect x="17.51562" y="18.0661" width="1.60583" height="6.36059" transform="translate(-9.6581 19.17608) rotate(-45)" fill="none"/><rect x="20.87771" y="14.70382" width="1.60605" height="6.36066" transform="translate(-6.29586 20.56874) rotate(-45)" fill="none"/><path d="M27.56446,25.93471,26.369,27.1302a.72916.72916,0,0,1-1.03118,0l-3.17151-3.17151-1.13555,1.13556L25.79522,29.859l4.49809-4.49773-4.76467-4.76476L24.393,21.73208l3.17146,3.17146A.72915.72915,0,0,1,27.56446,25.93471Z" fill="none"/><polygon points="11.417 13.209 13.644 10.983 17.833 15.172 18.969 14.036 14.261 9.328 8.704 8.269 9.762 13.825 14.471 18.534 15.606 17.399 11.417 13.209" fill="none"/><polygon points="30.237 13.825 31.296 8.269 25.739 9.328 21.031 14.036 25.528 18.534 30.237 13.825" fill="none"/><rect x="10.96807" y="22.04742" width="6.73839" height="6.36055" transform="translate(-13.63908 17.52589) rotate(-44.99773)" fill="none"/><polygon points="9.762 13.825 8.704 8.269 14.261 9.328 18.969 14.036 20 13.005 14.974 7.979 6.869 6.435 8.414 14.539 13.44 19.565 14.471 18.534 9.762 13.825" fill="#fff"/><polygon points="25.529 20.596 30.293 25.361 25.795 29.859 21.031 25.094 20 26.125 25.795 31.921 32.355 25.361 26.56 19.565 25.529 20.596" fill="#fff"/><path d="M26.369,27.1302l1.19548-1.19549a.72915.72915,0,0,0,0-1.03117L24.393,21.73208l-2.22671,2.22661L25.3378,27.1302A.72916.72916,0,0,0,26.369,27.1302Z" fill="#fff"/><rect x="13.05054" y="11.22845" width="3.14897" height="5.92462" transform="translate(-5.75082 14.49784) rotate(-45)" fill="#fff"/><rect x="18.11333" y="14.3907" width="1.60611" height="1.45814" transform="translate(-5.15081 17.80438) rotate(-45)" fill="#fff"/><polygon points="14.204 29.859 9.706 25.361 14.471 20.596 13.44 19.565 7.644 25.361 14.204 31.921 20 26.125 18.968 25.094 14.204 29.859" fill="#fff"/><rect x="14.75135" y="17.75296" width="1.60573" height="1.45814" transform="translate(-8.51305 16.41175) rotate(-45)" fill="#fff"/><polygon points="25.739 9.328 31.296 8.269 30.237 13.825 25.528 18.534 26.56 19.565 31.586 14.54 33.13 6.435 25.025 7.979 20 13.005 21.031 14.036 25.739 9.328" fill="#fff"/><rect x="23.64219" y="19.91941" width="1.606" height="1.45844" transform="translate(-7.44102 23.33252) rotate(-44.99876)" fill="#fff"/><rect x="20.27996" y="23.28167" width="1.60592" height="1.45836" transform="translate(-10.80319 21.94049) rotate(-45)" fill="#fff"/><rect x="19.27068" y="13.3073" width="1.45816" height="1.45816" transform="translate(-4.06743 18.25313) rotate(-45)" fill="#fff"/><rect x="19.27047" y="24.365" width="1.45821" height="1.45833" transform="translate(-11.88652 21.49175) rotate(-45)" fill="#fff"/><rect x="13.74175" y="18.83628" width="1.45832" height="1.45813" transform="translate(-9.59635 15.96304) rotate(-45)" fill="#fff"/><rect x="24.79946" y="18.83605" width="1.45819" height="1.45847" transform="translate(-6.35761 23.78195) rotate(-45)" fill="#fff"/><rect x="21.18955" y="21.60055" width="3.14897" height="1.4584" transform="translate(-9.12209 22.6362) rotate(-44.99885)" fill="#fff"/><rect x="15.66075" y="16.0719" width="3.14897" height="1.45814" transform="translate(-6.83199 17.10852) rotate(-45.00115)" fill="#fff"/><path d="M13.63021,27.13021l-1.19548-1.19548a.72916.72916,0,0,1,0-1.03118L26.35551,10.98277l2.22665,2.22666L14.66138,27.13021A.72915.72915,0,0,1,13.63021,27.13021Z" fill="#fff"/><polygon points="29.106 10.459 26.356 10.983 28.582 13.209 29.106 10.459" fill="#fff"/><rect x="5.6062" y="27.39638" width="11.6664" height="1.4583" transform="translate(23.23828 0.1489) rotate(45)" fill="#fff"/><path d="M9.14654,33.56523a1.4531,1.4531,0,0,1-1.03107-.42652l-1.689-1.68937a1.45906,1.45906,0,0,1,0-2.06212L9.5638,26.24988l3.75114,3.75149L10.1776,33.13871A1.4531,1.4531,0,0,1,9.14654,33.56523Zm0-1.45759.00071.00072,2.10556-2.107L9.5638,28.312,7.45753,30.41828Z" fill="#fff"/></svg>