<svg id="图层_1" data-name="图层 1" xmlns="http://www.w3.org/2000/svg" xmlns:xlink="http://www.w3.org/1999/xlink" viewBox="0 0 40 40"><defs><linearGradient id="未命名的渐变_2" x1="12.09216" y1="26.37298" x2="34.13049" y2="26.37298" gradientUnits="userSpaceOnUse"><stop offset="0.00479" stop-color="#024ea4"/><stop offset="1" stop-color="#2682ea"/></linearGradient></defs><title>八卦 副本</title><path d="M5.86953,30.24817V33.6921a.95211.95211,0,0,0,1.58746.70911l4.63517-4.153Z" fill="#404448"/><rect x="3.29787" y="7.30226" width="33.40426" height="22.94591" fill="none" stroke="#404448" stroke-miterlimit="10" stroke-width="2"/><path d="M32.93414,17.084H13.28851a1.19636,1.19636,0,0,0-1.19635,1.19635V31.83844a1.19635,1.19635,0,0,0,1.19635,1.19635H28.18845l2.37319,2.34977a.9521.9521,0,0,0,1.622-.67657v-1.6732h.7505a1.19634,1.19634,0,0,0,1.19635-1.19635V18.28031A1.19635,1.19635,0,0,0,32.93414,17.084Z" fill="url(#未命名的渐变_2)"/></svg>