<svg id="图层_1" data-name="图层 1" xmlns="http://www.w3.org/2000/svg" xmlns:xlink="http://www.w3.org/1999/xlink" viewBox="0 0 40 40"><defs><linearGradient id="未命名的渐变_2" x1="9.09637" y1="20.36295" x2="30.90367" y2="20.36295" gradientUnits="userSpaceOnUse"><stop offset="0.00479" stop-color="#024ea4"/><stop offset="1" stop-color="#2682ea"/></linearGradient></defs><title>其它 副本</title><circle cx="20" cy="20.36294" r="15.38298" fill="none" stroke="#404448" stroke-miterlimit="10" stroke-width="2"/><path d="M20,9.4593A10.90365,10.90365,0,1,0,30.90367,20.36292,10.90364,10.90364,0,0,0,20,9.4593ZM13.94342,22.21677a1.85385,1.85385,0,1,1,1.85385-1.85385A1.85383,1.85383,0,0,1,13.94342,22.21677Zm6.1588,0a1.85385,1.85385,0,1,1,1.85385-1.85385A1.8538,1.8538,0,0,1,20.10222,22.21677Zm6.15874,0a1.85385,1.85385,0,1,1,1.85385-1.85385A1.85383,1.85383,0,0,1,26.261,22.21677Z" fill="url(#未命名的渐变_2)"/></svg>