<svg id="图层_1" data-name="图层 1" xmlns="http://www.w3.org/2000/svg" viewBox="0 0 40 40"><title>其它</title><path d="M20,37.32032,5,28.66V11.34L20,2.67968,35,11.34V28.66ZM6.54991,27.76544,20,35.53051l13.45009-7.76507V12.23456L20,4.46949,6.54991,12.23456Z" fill="#fff"/><g id="图层_1-2" data-name="图层_1"><path d="M11.60573,29.72241c.09749-1.94268.1304-2.79311,1.02138-3.99384a8.77559,8.77559,0,0,0,2.91721,2.14152,7.05678,7.05678,0,0,0,.73428.27174c-1.61286,1.44084-2.38612,1.46588-4.67287,1.58058Zm8.72784-13.00635a4.83587,4.83587,0,0,0-.78976.64838,3.77645,3.77645,0,0,0-.85959,1.30083l1.058-1.02354a3.60119,3.60119,0,0,0,.59139-.92567ZM22.79034,14.431a4.87692,4.87692,0,0,0-1.08021.29425c.33386.09834.63352.18893,1.07779.32191Q22.78909,14.73911,22.79034,14.431Zm2.40519-1.13271.30692.12974.23978-.23555a8.98243,8.98243,0,0,0-1.05842-.41851l.51172.52432Zm-1.17631-.71453a11.20191,11.20191,0,0,0-1.86154-.29451,5.72353,5.72353,0,0,1,1.87175-.612,6.78123,6.78123,0,0,0-4.11968-.0026,2.05672,2.05672,0,0,1-.42458.78281c-.25071.226-.48422.426-.69133.61892a7.2857,7.2857,0,0,1,4.98435-.2933l.241-.19933Zm-11.07591-.07914a10.03075,10.03075,0,0,1-.41273,3.51454c-.09689.2559-.22456.55-.64566,1.60266a6.73152,6.73152,0,0,0-.10424,3.71525,2.56763,2.56763,0,0,0-2.339-.46491c1.35675.69242,2.126,2.22824,3.02693,3.40718,2.0694,2.708,4.61932,3.9735,7.893,3.06233,1.61746-.45016,3.96884-3.58892,2.5825-4.797a3.39309,3.39309,0,0,1-5.08347-3.02185c-.07395-1.92411,2.0213-3.87739,4.05514-4.12735a3.70983,3.70983,0,0,0-2.17995-.20759,5.79776,5.79776,0,0,1,3.32276-1.42247,1.58,1.58,0,0,1,.42477-.451c-2.0529-.53171-5.05282-.46225-7.65632,2.98578a11.87826,11.87826,0,0,1,3.27219-4.28861,1.94554,1.94554,0,0,0,.34524-1.73381,5.923,5.923,0,0,1-2.901,1.98291,6.6011,6.6011,0,0,0-2.65275,2.16094,3.2353,3.2353,0,0,0-.94743-1.917Zm9.81363,14.10166c.24533-.101.48757-.20878.72864-.32335-.68776,1.117-2.34941,2.36237-5.35187,2.75637,3.20992.845,6.27606.36519,8.20726-1.63774-.15467.27187-.31581.56061-.49286.81788,2.36884-1.36868,5.45227-5.39265,3.24316-9.27021a3.65928,3.65928,0,0,1,.94975,1.17491,7.50417,7.50417,0,0,0-1.60729-4.84162l-.624.63522,1.15387,1.12615-.86087,1.041a1.24278,1.24278,0,0,1-1.22044.51257l-.72982.00289a.92888.92888,0,0,1-.2976.63657l-.01142.53381a1.20993,1.20993,0,0,1-.80974,1.16332l.00026.00092a3.59175,3.59175,0,0,0-1.54718,1.00438,1.97984,1.97984,0,0,1,.6072.97334,3.00756,3.00756,0,0,1-.20894,1.94147,6.3712,6.3712,0,0,1-1.12808,1.75215Zm-4.07462-6.95282,1.54632-1.49606a4.62755,4.62755,0,0,0,.943-1.63127.40808.40808,0,0,1,.40174-.23126L22.5985,16.273l.0565-.17741c.031-.09739.07264-.11166.15982-.11212l.66023-.00315a.06191.06191,0,0,0,.06-.06159l.00574-1.45209c.00111-.28391-.004-.4297.22039-.61528l.46526-.38477,1.17182,1.20069L28.39341,11.725l.18732-.73261c.07317-.28612.27535-.2764.49735-.08341l.71738.62371.62371.71738c.193.222.20271.42419-.0834.49735l-.73261.18732L26.66091,15.9299l1.20069,1.17182-.38477.46526c-.18558.22443-.33136.21928-.61531.2204l-1.45206.00571a.062.062,0,0,0-.06159.06l-.00318.66023c-.00042.08721-.0147.12881-.11208.15982l-.17741.0565-.02192,1.02515a.408.408,0,0,1-.23129.40174,4.62843,4.62843,0,0,0-1.63124.943l-.813.84033a2.26463,2.26463,0,0,1-2.70269-.34859,3.01822,3.01822,0,0,1-.93965-1.70411q-.02151-.12142-.03311-.23368Z" fill="#fff" fill-rule="evenodd"/></g></svg>