<svg id="图层_1" data-name="图层 1" xmlns="http://www.w3.org/2000/svg" viewBox="0 0 40 40"><title>剧情</title><path d="M11.53947,32.22526H5V7.775h6.53947ZM6.50481,30.72044h3.52985V9.2798H6.50481Z"/><path d="M7.80116,5.53878h.937a1,1,0,0,1,1,1V8.52722a0,0,0,0,1,0,0h-2.937a0,0,0,0,1,0,0V6.53878A1,1,0,0,1,7.80116,5.53878Z"/><path d="M6.80116,31.47278h2.937a0,0,0,0,1,0,0v1.98844a1,1,0,0,1-1,1h-.937a1,1,0,0,1-1-1V31.47278A0,0,0,0,1,6.80116,31.47278Z"/><path d="M35,32.22526H28.4609V7.775H35Zm-5.03429-1.50482h3.52948V9.2798H29.96571Z"/><path d="M31.262,5.53878h.937a1,1,0,0,1,1,1V8.52722a0,0,0,0,1,0,0H30.262a0,0,0,0,1,0,0V6.53878A1,1,0,0,1,31.262,5.53878Z"/><path d="M30.262,31.47278h2.937a0,0,0,0,1,0,0v1.98844a1,1,0,0,1-1,1h-.937a1,1,0,0,1-1-1V31.47278A0,0,0,0,1,30.262,31.47278Z"/><path d="M29.96571,31.71275h-19.931V8.5645H29.96571ZM11.53947,30.20794H28.4609V10.06931H11.53947Z"/><rect x="10.7869" y="13.86327" width="18.42635" height="12.55078"/></svg>