<svg id="图层_1" data-name="图层 1" xmlns="http://www.w3.org/2000/svg" xmlns:xlink="http://www.w3.org/1999/xlink" viewBox="0 0 40 40"><defs><linearGradient id="未命名的渐变_2" x1="9.19968" y1="20.12896" x2="30.80032" y2="20.12896" gradientUnits="userSpaceOnUse"><stop offset="0.00479" stop-color="#024ea4"/><stop offset="1" stop-color="#2682ea"/></linearGradient></defs><title>剧情 副本</title><rect x="9.19968" y="14.29274" width="21.60063" height="11.67244" fill="url(#未命名的渐变_2)"/><rect x="3.29787" y="9.33011" width="5.90181" height="21.33978" fill="none" stroke="#404448" stroke-miterlimit="10" stroke-width="2"/><path d="M5.52733,6.55081h1.4429a1,1,0,0,1,1,1v1.7793a0,0,0,0,1,0,0H4.52733a0,0,0,0,1,0,0V7.55081A1,1,0,0,1,5.52733,6.55081Z" fill="#404448"/><path d="M4.52733,30.66989h3.4429a0,0,0,0,1,0,0v1.7793a1,1,0,0,1-1,1H5.52733a1,1,0,0,1-1-1v-1.7793A0,0,0,0,1,4.52733,30.66989Z" fill="#404448"/><rect x="30.80032" y="9.33011" width="5.90181" height="21.33978" fill="none" stroke="#404448" stroke-miterlimit="10" stroke-width="2"/><path d="M33.02977,6.55081h1.4429a1,1,0,0,1,1,1v1.7793a0,0,0,0,1,0,0h-3.4429a0,0,0,0,1,0,0V7.55081A1,1,0,0,1,33.02977,6.55081Z" fill="#404448"/><path d="M32.02977,30.66989h3.4429a0,0,0,0,1,0,0v1.7793a1,1,0,0,1-1,1h-1.4429a1,1,0,0,1-1-1v-1.7793A0,0,0,0,1,32.02977,30.66989Z" fill="#404448"/><rect x="9.19968" y="10.06446" width="21.60063" height="20.12901" fill="none" stroke="#404448" stroke-miterlimit="10" stroke-width="2"/></svg>