<svg id="图层_1" data-name="图层 1" xmlns="http://www.w3.org/2000/svg" xmlns:xlink="http://www.w3.org/1999/xlink" viewBox="0 0 40 40"><defs><linearGradient id="未命名的渐变_2" x1="8.7281" y1="19.47309" x2="29.17361" y2="19.47309" gradientUnits="userSpaceOnUse"><stop offset="0.00479" stop-color="#024ea4"/><stop offset="1" stop-color="#2682ea"/></linearGradient></defs><title>帮会 副本</title><path d="M6.47528,30.76844H8.13477a0,0,0,0,1,0,0v4.26925a0,0,0,0,1,0,0H6.47528a1,1,0,0,1-1-1V31.76844A1,1,0,0,1,6.47528,30.76844Z" transform="translate(-26.09804 39.70809) rotate(-90)" fill="#404448"/><polygon points="29.174 12.925 8.728 12.925 8.728 19.473 8.728 26.022 29.174 26.022 26.969 19.473 29.174 12.925" fill="url(#未命名的渐变_2)"/><path d="M34.40678,9.37282l-4.34259,9.25034-.399.84991.399.84991,4.34259,9.25034H6.67039V9.37282H34.40678m1.63282-2H4.67039v24.2005H36.0396c.90265,0,1.40356-.86234.83813-1.44293L31.87462,19.47307,36.87773,8.81575c.56543-.58058.06452-1.44293-.83813-1.44293Z" fill="#404448"/><path d="M7.00222,4.4354h.6056a0,0,0,0,1,0,0V8.70465a0,0,0,0,1,0,0h-.6056a1,1,0,0,1-1-1V5.4354A1,1,0,0,1,7.00222,4.4354Z" transform="translate(13.37505 -0.235) rotate(90)" fill="#404448"/></svg>