<svg id="图层_1" data-name="图层 1" xmlns="http://www.w3.org/2000/svg" viewBox="0 0 40 40"><title>帮会</title><path d="M19.99993,35.4277,6.282,28.35846V8.478H33.71827V28.35846ZM7.76161,27.45607l12.23832,6.307,12.23867-6.307V9.95764H7.76161Z" fill="#fff"/><path d="M28.69561,24.99507l-8.31938,4.91344a.73985.73985,0,0,1-.75246,0l-8.31938-4.91344a.73982.73982,0,0,1-.3636-.637V9.95765a.73983.73983,0,0,1,.73983-.73984H28.31938a.73983.73983,0,0,1,.73983.73984v14.4004A.73982.73982,0,0,1,28.69561,24.99507Z" fill="#fff"/><rect x="5" y="6.79911" width="30" height="3.15854" fill="#fff"/></svg>