<svg id="图层_1" data-name="图层 1" xmlns="http://www.w3.org/2000/svg" xmlns:xlink="http://www.w3.org/1999/xlink" viewBox="0 0 40 40"><defs><linearGradient id="未命名的渐变_2" x1="13.49497" y1="19.85753" x2="26.50493" y2="19.85753" gradientUnits="userSpaceOnUse"><stop offset="0.00479" stop-color="#024ea4"/><stop offset="1" stop-color="#2682ea"/></linearGradient></defs><title>玩家 副本</title><path d="M20.129,29.46111a9.87175,9.87175,0,0,0,4.38835-1.62625c3.54806-2.34584,4.06432-6.25683,4.38842-8.712.40093-3.03717.8672-6.56962-1.807-9.17665C24.67035,7.57873,21.11964,7.405,19.99992,7.39063c-1.11972.01438-4.67042.1881-7.09882,2.55555-2.67425,2.607-2.20791,6.13948-1.807,9.17665.3241,2.4552.84036,6.36619,4.38835,8.712A10.70957,10.70957,0,0,0,20.129,29.46111" fill="none" stroke="#404448" stroke-miterlimit="10" stroke-width="2"/><path d="M16.63129,7.39063V5.99671a3.36865,3.36865,0,0,1,3.36865-3.36865h0A3.36865,3.36865,0,0,1,23.3686,5.99671V7.39063" fill="none" stroke="#404448" stroke-miterlimit="10" stroke-width="2"/><path d="M34.05536,34.71755c0,.66775-6.29283,2.65437-14.05541,2.65437S5.94454,35.92738,5.94454,34.71755c0-2.90306,6.29282-5.25644,14.05541-5.25644S34.05536,31.81449,34.05536,34.71755Z" fill="none" stroke="#404448" stroke-miterlimit="10" stroke-width="2"/><path d="M28.394,17.12676h1.21573a2.208,2.208,0,0,1,2.208,2.208v0a2.208,2.208,0,0,1-2.208,2.208H28.394a0,0,0,0,1,0,0V17.12676a0,0,0,0,1,0,0Z" fill="#404448"/><path d="M8.1821,17.12676H9.39783a2.208,2.208,0,0,1,2.208,2.208v0a2.208,2.208,0,0,1-2.208,2.208H8.1821a0,0,0,0,1,0,0V17.12676a0,0,0,0,1,0,0Z" transform="translate(19.78798 38.66961) rotate(-180)" fill="#404448"/><rect x="13.49497" y="12.51906" width="13.00996" height="14.67693" rx="6.50497" fill="url(#未命名的渐变_2)"/></svg>