<svg id="图层_1" data-name="图层 1" xmlns="http://www.w3.org/2000/svg" viewBox="0 0 40 40"><title>玩家</title><path d="M19.94424,36a16,16,0,1,1,16-16A16.0181,16.0181,0,0,1,19.94424,36Zm0-30.54545A14.54546,14.54546,0,1,0,34.4897,20,14.56211,14.56211,0,0,0,19.94424,5.45455Z"/><path d="M20.18543,9.44808A10.5519,10.5519,0,1,0,30.73752,20.00017,10.564,10.564,0,0,0,20.18543,9.44808Zm2.04494,2.40326h2.31352v1.15677h1.15677v1.15676H24.54389V13.00811H22.23037ZM14.0962,13.00811h1.15671V11.85134h2.31353v1.15677H15.25291v1.15676H14.0962ZM11.78267,16.506V15.34933H18.7232V16.506H17.56644V17.6628H16.40967V16.506ZM23.36044,29.30419H22.20368V28.14747H17.57662v1.15672H16.4199V28.14747h1.15672V26.99071h4.62706v1.15676h1.15676ZM28.01414,16.506V17.6628H26.85742V16.506H22.23037V15.34933H29.1709V16.506Z"/></svg>