<svg id="图层_1" data-name="图层 1" xmlns="http://www.w3.org/2000/svg" xmlns:xlink="http://www.w3.org/1999/xlink" viewBox="0 0 40 40"><defs><linearGradient id="未命名的渐变_2" x1="19.85927" y1="20.35159" x2="29.11783" y2="28.65219" gradientUnits="userSpaceOnUse"><stop offset="0.00479" stop-color="#024ea4"/><stop offset="1" stop-color="#2682ea"/></linearGradient></defs><title>玩法 副本</title><rect x="5.94454" y="5.94459" width="28.11082" height="28.11082" fill="none" stroke="#404448" stroke-miterlimit="10" stroke-width="2"/><rect x="8.41664" y="14.56109" width="23.16661" height="1.87405" fill="#404448"/><rect x="3.91476" y="19.06297" width="23.16661" height="1.87405" transform="translate(35.49807 4.50193) rotate(90)" fill="#404448"/><rect x="8.41664" y="23.56485" width="23.16661" height="1.87405" transform="translate(39.99989 49.00376) rotate(180)" fill="#404448"/><rect x="12.91852" y="19.06297" width="23.16661" height="1.87405" transform="translate(4.50183 44.50183) rotate(-90)" fill="#404448"/><path d="M30.64285,23.57307a6.25214,6.25214,0,0,0-5.22551-5.2255,5.60014,5.60014,0,0,0-1.85761,0,6.25223,6.25223,0,0,0-5.22551,5.2255,5.60062,5.60062,0,0,0,0,1.85769,6.25223,6.25223,0,0,0,5.22551,5.22543,5.60014,5.60014,0,0,0,1.85761,0,6.25214,6.25214,0,0,0,5.22551-5.22543,5.60062,5.60062,0,0,0,0-1.85769Z" fill="url(#未命名的渐变_2)"/></svg>