<svg id="图层_1" data-name="图层 1" xmlns="http://www.w3.org/2000/svg" viewBox="0 0 40 40"><title>玩法</title><path d="M34,34H6V6H34ZM7.45823,32.54177H32.54177V7.45823H7.45823Z" fill="#fff"/><rect x="9.06324" y="15.0204" width="21.87339" height="1.45823" fill="#fff"/><rect x="4.81266" y="19.27097" width="21.87339" height="1.45823" transform="translate(35.74944 4.25073) rotate(90)" fill="#fff"/><path d="M30.93662,23.52156h-1.855a4.39648,4.39648,0,0,1,0,1.45823h1.855Z" fill="#fff"/><path d="M19.41941,23.52156H9.06324v1.45823H19.41941a4.39648,4.39648,0,0,1,0-1.45823Z" fill="#fff"/><path d="M23.52138,29.08176v1.855h1.45823v-1.855a4.39648,4.39648,0,0,1-1.45823,0Z" fill="#fff"/><path d="M24.97961,19.41955V9.06337H23.52138V19.41955a4.39648,4.39648,0,0,1,1.45823,0Z" fill="#fff"/><path d="M23.6499,20.27109a4.0429,4.0429,0,0,0-3.37895,3.379h3.379Z" fill="#fff"/><path d="M24.85109,28.23022a4.04291,4.04291,0,0,0,3.379-3.37895h-3.379Z" fill="#fff"/><path d="M20.271,24.85127a4.04291,4.04291,0,0,0,3.379,3.379V24.85127Z" fill="#fff"/><path d="M28.23008,23.65007a4.0429,4.0429,0,0,0-3.379-3.379v3.379Z" fill="#fff"/><path d="M23.6499,23.65007H20.271a3.62149,3.62149,0,0,0,0,1.2012h3.379Z" fill="#fff"/><path d="M28.23008,23.65007h-3.379v1.2012h3.379a3.62149,3.62149,0,0,0,0-1.2012Z" fill="#fff"/><path d="M23.6499,24.85127v3.379a3.62214,3.62214,0,0,0,1.20119,0V24.85127Z" fill="#fff"/><path d="M24.85109,23.65007v-3.379a3.62143,3.62143,0,0,0-1.20119,0v3.379Z" fill="#fff"/><rect x="23.6499" y="23.65007" width="1.20119" height="1.20119" fill="#fff"/></svg>